<svg xmlns="http://www.w3.org/2000/svg" viewBox="0 0 117.84 173.08"><defs><style>.cls-1{fill:#b5164f;}.cls-2{fill:#ff2a64;}.cls-3{fill:#00dad7;}.cls-4{fill:#fff;}.cls-5{fill:#9b9b9b;}.cls-6{fill:#ffdba6;}.cls-7{fill:#e5e5e5;}.cls-8{fill:#ccc;}.cls-9{fill:#1d2732;}.cls-10{fill:#757575;}.cls-11{fill:#f2c78f;}</style></defs><title>666</title><g id="Layer_2" data-name="Layer 2"><g id="OBJECTS"><path class="cls-1" d="M66.75,51.38c.59,2.43,0,14.42,0,14.42l-.68.33c-3.63-7.62-10-17.72-10-17.72a4.35,4.35,0,0,0,3.81-1.8h0C60.68,46.62,66.17,48.95,66.75,51.38Z"/><path class="cls-2" d="M25.63,83.71l3.56,15.8a51.29,51.29,0,0,0-11.93-4.33c1-2.75,7.57-20.7,10.3-28.7,1.89-5.53-.93-9.47-4.72-10.87h0a8.91,8.91,0,0,0-5-.33l-.06-.21s15.87-8.17,17-8.44c0,0,8.75,13.32,20,15.19,0,0,1-8.63,0-13.31l0-.22a9.79,9.79,0,0,0,1.31.13s6.38,10.1,10,17.72c1.67,3.5,2.76,6.48,2.39,7.72-1,3.22-4.61,6.71-8.24,8.55a13.13,13.13,0,0,1-2.47,1c-3.87,1.75-12.3,5.48-19.53,6.51C31.19,90.9,26.11,85,25.63,83.71Z"/><path class="cls-3" d="M117.15,139.35c3.28,7-5.55,12.19-17.88,11.09l-2.47-.22c8.94-1.39,11.29-3.5,11.29-3.5-1.51-3.55,0-8.14,0-8.14-1-1.91-6.53-2.35-6.53-2.35C106.38,135,114.35,133.33,117.15,139.35Z"/><path class="cls-4" d="M109.65,85.36s9.58,2.54,7.09,9.78-11.36,14.81-11.36,14.81Z"/><polygon class="cls-5" points="77.12 97.09 94.9 87.16 110.89 78.25 109.65 85.36 105.38 109.95 104.69 113.95 96.03 118.8 68.16 134.43 55.27 141.65 58.01 120.36 59.63 107.7 59.75 106.79 61.89 105.59 77.12 97.09"/><path class="cls-6" d="M108.09,138.58s-1.51,4.59,0,8.14c0,0-2.35,2.11-11.29,3.5-10.39-.88-13.72-.81-13.72-.81a45.17,45.17,0,0,1,.34-4.59c.35-2.52,1-5.07,2.31-6.26,0,0,9.58-.74,13.67-1.77l2.16-.56S107.11,136.67,108.09,138.58Z"/><polygon class="cls-4" points="96.03 118.8 80.76 137.38 68.16 134.43 96.03 118.8"/><path class="cls-4" d="M94.9,87.16,77.12,97.09l-2.68-1.54a151.56,151.56,0,0,1,15.8-6.71Z"/><path class="cls-7" d="M80.76,137.38l5,1.18c-1.28,1.19-2,3.74-2.31,6.26l-.34-.06s-38.09,1.09-50.52,0-20.24-17.27-20.24-17.27c1.81-3.3,5.48-5.42,11.81-5.06l31.14,19.22,12.89-7.22Z"/><path class="cls-4" d="M83.08,144.76l.34.06a45.17,45.17,0,0,0-.34,4.59c0,1.18,0,2,0,2s-3.5.2-16.85.11l-5.07,0-3.88-.06-2,0c-2.17,0-4.19-.06-6.06-.11-17.43-.45-21.78-1.55-21.78-1.55s-14.71-4.37-16.16-12.3c-.66-3.61-.46-7.18,1-9.92,0,0,7.8,16.18,20.24,17.27S83.08,144.76,83.08,144.76Z"/><path class="cls-3" d="M73.93,159.48c2.38,3.28,4.26,7.19,3.66,10.93,0-1.55-1.49-3.56-4.12-5.81-3.92-3.36-13-11-16.19-13.21l3.88.06C64.5,155.06,73.93,159.48,73.93,159.48Z"/><path class="cls-8" d="M77.59,170.41v.05a2.61,2.61,0,0,1-1.78,2.27c-3.17,1.48-9.27-2-12.82-5.24S56.55,164,51.27,160c-5.1-3.88-2.26-8.43-2.06-8.72,1.87,0,3.89.08,6.06.11l2,0c3.19,2.2,12.27,9.85,16.19,13.21C76.1,166.85,77.59,168.86,77.59,170.41Z"/><path class="cls-4" d="M74.44,95.55l2.68,1.54-15.23,8.5a11.5,11.5,0,0,1-1.18-2.33l2.36-1.44c1.64-1,3.3-2,5-2.9L70,100l4.34-4.42Z"/><path class="cls-1" d="M74.93,95l-.51.52,0,0c-2.14,1.06-4.24,2.17-6.32,3.33l-9.5-5.25c-.7-5.37-.8-10.28-.8-10.28a13.13,13.13,0,0,0,2.47-1Z"/><path class="cls-1" d="M74.37,95.59,70,100l-2-1.09C70.13,97.76,72.23,96.65,74.37,95.59Z"/><path class="cls-9" d="M72.6,19.83a8.3,8.3,0,0,1-4.67,8l-.25,0a61.65,61.65,0,0,0,.24-6.27s-12.18,11-22.34,8.18h-.06a6,6,0,0,0,.13-.74,9,9,0,0,0,0-1.8,7.6,7.6,0,0,0-2.42-5.26c1.07-8.71,12.58-10.52,18-13s7.15-1.13,7.15-1.13l0,0,.1,0C71.8,8.1,72.15,14.12,72.6,19.83Z"/><path class="cls-6" d="M66.23,151.48a44.25,44.25,0,0,1,7.7,8s-9.43-4.42-12.77-8Z"/><path class="cls-4" d="M62.63,4.52c6.77-.4,6,2.78,5.85,3.24l0,0s-1.69-1.32-7.15,1.13-17,4.26-18,13a4,4,0,0,0-2.85-1s.39-6.35,2.84-8.14c2.3-1.67,11.09-7,18-8.08l.52-.07Z"/><path class="cls-6" d="M67.92,21.54a61.65,61.65,0,0,1-.24,6.27c-.36,4.23-1.25,9.58-3.44,12.6-2.05,2.83-3.22,4.88-4.37,6.2a4.35,4.35,0,0,1-3.81,1.8,9.79,9.79,0,0,1-1.31-.13,13.15,13.15,0,0,1-2.08-.52c-4-1.31-9.34-4.85-11.54-12.78l0-.82h.26c2-.15,3.58-2,4.11-4.44h.06C55.74,32.53,67.92,21.54,67.92,21.54Z"/><path class="cls-1" d="M58.55,93.67a43,43,0,0,0,2.16,9.59,11.5,11.5,0,0,0,1.18,2.33l-2.14,1.2-.12.91s-5-2.48-8.84-2.64-10.34,0-10.34,0a116,116,0,0,1-11.26-5.55l-3.56-15.8c.48,1.32,5.56,7.19,12.59,6.19,7.23-1,15.66-4.76,19.53-6.51C57.75,83.39,57.85,88.3,58.55,93.67Z"/><path class="cls-9" d="M61.72,4.19l0,.41-.52.07c-6.9,1.09-15.69,6.41-18,8.08-2.45,1.79-2.84,8.14-2.84,8.14-2.63.2-4.55,3.33-4.28,7a8.53,8.53,0,0,0,.73,2.93c.9,2,2.51,3.35,4.28,3.35l0,.82s-.53,8.22-6.38,11.64c-1.12.27-17,8.44-17,8.44l.06.21a8.55,8.55,0,0,0-1.67.6c-1.64.81-3.38,3.58-5,7.13,0,0-3.53-2.92,0-8.21s5.15-2.87,5.38-10.33,2.29-11.1,7.1-14.83S29.54,6.12,34.75,3.56,42.66-3.27,61.72,4.19Z"/><path class="cls-6" d="M59.63,107.7,58,120.36a6.7,6.7,0,0,1-3.5,0c-2.37-.46-4.29-2.43-7.44-4.75a30.86,30.86,0,0,0-5.94-2.44L40.5,113c1.71-6.06,0-7.92,0-7.92s6.46-.15,10.34,0S59.63,107.7,59.63,107.7Z"/><path class="cls-10" d="M58,120.36l-2.74,21.29L24.13,122.43l8.65-4.65,8.29-4.45.06-.16a30.86,30.86,0,0,1,5.94,2.44c3.15,2.32,5.07,4.29,7.44,4.75A6.7,6.7,0,0,0,58,120.36Z"/><path class="cls-11" d="M54.71,48.5c1,4.68,0,13.31,0,13.31-3.37-5.53-2-14-2-14h0a13.15,13.15,0,0,0,2.08.52Z"/><path class="cls-11" d="M52.67,47.76h0s-1.33,8.51,2,14c-11.21-1.87-20-15.19-20-15.19C40.6,43.2,41.13,35,41.13,35,43.33,42.91,48.66,46.45,52.67,47.76Z"/><path class="cls-1" d="M45.69,27.17a9,9,0,0,1,0,1.8,6,6,0,0,1-.13.74C45,32.17,43.4,34,41.41,34.15h-.26c-1.77,0-3.38-1.34-4.28-3.35a8.53,8.53,0,0,1-.73-2.93c-.27-3.66,1.65-6.79,4.28-7a4,4,0,0,1,2.85,1A7.6,7.6,0,0,1,45.69,27.17ZM41,31c1.35-.1,2.35-1.67,2.21-3.51s-1.35-3.25-2.71-3.15S38.18,26,38.32,27.86,39.67,31.11,41,31Z"/><path class="cls-4" d="M43.24,27.5c.14,1.84-.86,3.41-2.21,3.51s-2.58-1.31-2.71-3.15.85-3.41,2.21-3.51S43.1,25.66,43.24,27.5Z"/><path class="cls-1" d="M40.5,113l.63.19-.06.16-8.29,4.45a153.43,153.43,0,0,1-16.75,0,36.2,36.2,0,0,1,7-7.83A77.89,77.89,0,0,1,40.5,113Z"/><path class="cls-2" d="M17.26,95.18a51.29,51.29,0,0,1,11.93,4.33,116,116,0,0,0,11.26,5.55s1.76,1.86,0,7.92a77.89,77.89,0,0,0-17.51-3s-3,0-6.82-.26c-6.22-.41-14.61-1.45-15.75-4.1-1.85-4.28,3-19.87,3-19.87S7,71.91,11.13,63c1.64-3.55,3.38-6.32,5-7.13a8.55,8.55,0,0,1,1.67-.6,8.91,8.91,0,0,1,5,.33h0c2.83,1.27,1.29,8.53,1.29,8.53L13.54,94.53C14.81,94.69,16.06,94.91,17.26,95.18Z"/><path class="cls-7" d="M32.78,117.78l-8.65,4.65c-6.33-.36-10,1.76-11.81,5.06A22.55,22.55,0,0,1,16,117.78,153.43,153.43,0,0,0,32.78,117.78Z"/><path class="cls-1" d="M22.84,55.61c3.79,1.4,6.61,5.34,4.72,10.87-2.73,8-9.29,26-10.3,28.7-1.2-.27-2.45-.49-3.72-.65L24.13,64.14S25.67,56.88,22.84,55.61Z"/><path class="cls-2" d="M23,109.95a36.2,36.2,0,0,0-7,7.83h0l.15-8.09C20,109.94,23,109.95,23,109.95Z"/></g></g></svg>