<svg xmlns="http://www.w3.org/2000/svg" viewBox="0 0 267.98 184.56"><defs><style>.cls-1{fill:#eee;}.cls-2{fill:#fff;}.cls-3{fill:#ff931e;}.cls-4{fill:#ff3a46;}.cls-5{fill:#ffd648;}.cls-6{fill:#8fbdc5;}.cls-7{fill:#01008a;}.cls-8{fill:#1631a4;}.cls-9{fill:#6774ff;}.cls-10{fill:#4f5cd2;}.cls-11{fill:#ea2f41;}.cls-12{fill:#cbcbcb;}.cls-13{fill:#e5e5e5;}.cls-14{fill:#ffbb48;}</style></defs><title>erty</title><g id="Layer_2" data-name="Layer 2"><g id="Object"><path class="cls-1" d="M227.87,184.56H61.34S6.07,178,11.43,155.41s31.1,5.66,36.65-9.61S-4.54,131.21.28,116s44.25.44,44.92-11.95-16.5-4-11.67-15.95-7-18.43-17.7-22.72,7.51-16.44,14.48-11.44,21.85-10.19,6.9-22.7S24.41,15,34.07,3.71,127.28,9.56,124.91,19s-21.66,6.09-20.6,13.64S146.95,53,151.9,43.09,141.46,32.62,144.6,19s95.46,4.33,90.86,15.45-19,4.86-20.12,10.72,44.48,10.17,38.58,23.78-10.86,4.88-12.67,16.75,33.58,16.12,25.54,32.76-25.74-8-29,15.57,25.74,7.42,23.06,21.41S249.55,184.56,227.87,184.56Z"/><path class="cls-2" d="M71.54,150H217.67a6.47,6.47,0,0,1,6.47,6.47v9.25a0,0,0,0,1,0,0H65.07a0,0,0,0,1,0,0v-9.25A6.47,6.47,0,0,1,71.54,150Z"/><path class="cls-3" d="M215.55,151.11H73.65a14.46,14.46,0,0,1-14.46-14.46h0a14.46,14.46,0,0,1,14.46-14.46h141.9A14.46,14.46,0,0,1,230,136.65h0A14.46,14.46,0,0,1,215.55,151.11Z"/><path class="cls-2" d="M65.07,118.44,48.93,71.35C45.52,61.41,52.74,51,63.05,51H226.27c10.32,0,17.55,10.43,14.11,20.38l-16.25,47.05Z"/><circle class="cls-4" cx="53.63" cy="115.99" r="14.55"/><circle class="cls-5" cx="53.63" cy="115.99" r="9.17"/><circle class="cls-4" cx="235.46" cy="115.99" r="14.55"/><circle class="cls-5" cx="235.46" cy="115.99" r="9.17"/><path class="cls-3" d="M79.66,118.44,66.09,78.83C63.22,70.47,69.29,61.72,78,61.72H215.25c8.68,0,14.76,8.77,11.87,17.14l-13.66,39.58Z"/><circle class="cls-5" cx="104.32" cy="84.38" r="5.15"/><circle class="cls-5" cx="146.76" cy="84.38" r="5.15"/><circle class="cls-5" cx="198.23" cy="84.38" r="5.15"/><path class="cls-6" d="M65.07,165.67l-5.24,16.84a1.58,1.58,0,0,0,1.51,2h0a1.58,1.58,0,0,0,1.27-.64l13.53-18.25Z"/><path class="cls-6" d="M224.13,165.67l5.24,16.84a1.58,1.58,0,0,1-1.51,2h0a1.58,1.58,0,0,1-1.27-.64l-13.53-18.25Z"/><path class="cls-2" d="M74,116.13H215.2a8.93,8.93,0,0,1,8.93,8.93v0a0,0,0,0,1,0,0H65.07a0,0,0,0,1,0,0v0A8.93,8.93,0,0,1,74,116.13Z"/><path class="cls-7" d="M127.25,159.07s1.15,6.08,3.17,8.36,4.32,6.63,4,7.78c-.08.33-2.12,2.78-4.32,2.21-5.59-1.44-14.81-7.81-14.79-10.76s4.13-7.59,4.13-7.59Z"/><path class="cls-8" d="M114.38,159.55s13.35,3.46,15.75-1.63L119.28,110s-1.73-8.07-10-9.89-21.13-4.61-21.13-4.61V93L77.31,97.11l11.53,18,11.33.38s3.36.1,4.51,4.42S114.38,159.55,114.38,159.55Z"/><path class="cls-7" d="M95.36,163a71.28,71.28,0,0,0,4.51,11c2.5,4.51,4.32,6.53,3.84,7.88s-5.09,2.79-5.57,2.5-14-8.26-14-9.61a37.24,37.24,0,0,1,1.54-6.92c.29-.58,1.92-6.63,1.92-6.63l6.38-1Z"/><path class="cls-7" d="M81.92,162.33s10,6.23,15.27-1.06l-6.34-53.6s-1-7.59-5.38-8.55-3.94-1.25-3.94-1.25,1.34-2.79.86-3.94L62.8,98s4.8,18.35,9.89,18.25Z"/><path class="cls-9" d="M77.26,33.21s.36,11.24,0,12.54-2.92,5.67-3.67,6.09l-.07,0a3.17,3.17,0,0,1-2.45,0c-.77-.39-6.12-3.61-8.57-5.09L61.26,46S58,42.22,58,41.64V34.8l3.39-1.58,2.81-4.47s4.68-2.59,5.48-2.59,8.86,1.44,8.86,1.44Z"/><path class="cls-10" d="M62.49,40v1.52s1.31-7.83,1.8-7.9a3,3,0,0,1,1.84,0c.83.3,6.41-2.33,7.46-1.28s2.9,2.23,3.7,1.71-1.22-7.69-3-7.86-7.9.81-8.58,1.26S58,31.47,58,32a21.52,21.52,0,0,0,1.18,4.36C59.51,36.59,62.49,39,62.49,40Z"/><path class="cls-9" d="M73.58,51.84v1.9c-2.38,6.12-11.09,1.08-11.09,1.08v-8l1.79,1.08h0c2.65,1.59,6.16,3.7,6.78,4a3.17,3.17,0,0,0,2.45,0Z"/><path class="cls-10" d="M73.58,51.84v1.49c-1.46,1.47-2.78,1.53-2.46.95S64.5,48,64.29,47.86c2.65,1.59,6.16,3.7,6.78,4a3.17,3.17,0,0,0,2.45,0Z"/><path class="cls-4" d="M89,93.94s-17,3.89-24.24,5.13a11.54,11.54,0,0,1-3.14.34c-.51-.34-3.18-12.66-5.31-22.78-1.5-7.12-2.71-13.14-2.71-13.14s-1.37-5,.91-6.05l7.95-3.55s7.95,4.9,11.09-.14l-.07-1.88,10.23-3.55S86,48.12,87,55.13,89,93.94,89,93.94Z"/><path class="cls-11" d="M64.79,99.08a11.54,11.54,0,0,1-3.14.34c-.51-.34-3.18-12.66-5.31-22.78.25-5.27.51-9.27.51-9.27l.66-6.49s6.07,27.83,7.86,29.2A19.81,19.81,0,0,0,73.58,93C74.74,93,69.68,96.47,64.79,99.08Z"/><path class="cls-9" d="M139.45,51a35.87,35.87,0,0,0-4.8-3.27c-1.25-.48-6.15.48-7.11.58s-19-3.36-20.27-3.17-10.66,1.34-11,1.63,1.73,9.91,2.88,10,9.7-4.29,10.47-4.65S127.25,51,127.25,51a49.15,49.15,0,0,0,5.28,2.35,30.06,30.06,0,0,0,3.94-.38s-.19-1.24-1.25-1.15a14,14,0,0,1-3.65-.82Z"/><path class="cls-2" d="M99.78,57.92l-4.61,1.83h0l-7.52,3L85.12,56l0-.11,0-.07-2.91-6.93s.09-.22,2-.85,12-2.89,12-2.89S100.45,56.67,99.78,57.92Z"/><path class="cls-12" d="M95.17,59.75h0l-7.52,3L85.12,56l0-.11,0-.07c-.18-.57,2.65,5.46,4.41,4.79A25.5,25.5,0,0,1,95.17,59.75Z"/><path class="cls-9" d="M59.19,83.81l-2.34,18A14.81,14.81,0,0,0,45.2,104s-3.15,2-8,4.76h0l1.12,6.43s-1.55,3.26-1.81,3.12a1.9,1.9,0,0,1-.6-2,6.18,6.18,0,0,0-.1-2.74s-3.19,2.75-3.79,4.78-2.33,7.29-2.59,6.65-2.42-4.48-1.9-8.08a84,84,0,0,1,3.2-11.66c.26-.54,17.83-11,18.46-11.59s2.44-12.23,2.44-12.23l7.47,2.33Z"/><path class="cls-10" d="M59.19,83.81l-2.34,18A14.81,14.81,0,0,0,45.2,104s-3.15,2-8,4.76c.34-.29,11.37-9.53,15.52-10.05S57,84.22,57,84.22l2.08-.44Z"/><path class="cls-2" d="M48.78,83.47s9,4,11.62,1.92L58,62.73s-.63-4.92-4.06-4.85-3.72,3-4.11,4.85S48.78,83.47,48.78,83.47Z"/><path class="cls-7" d="M65.3,32.56s-1.25-1.54-1.73,1S62.49,40,62.49,40s.22-2-1-2-1.44,5.48,0,5.57,1,3.26,1,3.26l.38,3.07s-5.64.38-7.76-4.23-4.42-8.93-.53-12.87,3.22-7.49,4.75-9.89S75.86,17,78,20.36,84,25,84.51,24.59s-6.39,9.8-7.23,9.42-3-3.46-3.7-3.94-3.19.19-4.15,1A16.22,16.22,0,0,1,65.3,32.56Z"/><path class="cls-9" d="M169.54,91.78s-2.59,7.28-3.1,8.36-15.41,3.23-18.73,3.72l-.65.1a1.92,1.92,0,0,0-.45.3h0a7.24,7.24,0,0,0-1.41,2.22c-.21.36-1.15,2.74-1.51,3.38s-.86-.21-.79-1.37.14-1.73-.43-2-6,3.17-6.34,3.6-2.67,1.23-2.16,0,7.78-7.85,7.78-7.85,2.52-2.31,4.61-2.81S161.91,93,161.91,93l.65-3.29s5.11-1.8,5.83-1.59c.51.15.87,1.92,1,2.94C169.5,91.48,169.54,91.78,169.54,91.78Z"/><path class="cls-10" d="M169.54,91.78s-2.59,7.28-3.1,8.36-15.41,3.23-18.73,3.72c2.59-.93,9-3.2,11.34-3.83,3-.81,6.19-2.11,6.48-3.69S166.89,91,166.89,91h2.54C169.5,91.48,169.54,91.78,169.54,91.78Z"/><path class="cls-13" d="M161.55,92s6.77,2.74,8,1.95l-1.22-37.16a5.52,5.52,0,0,0-2.77,3.67C164.86,63.18,161.55,92,161.55,92Z"/><path class="cls-7" d="M149.92,159.07s-.19,5.67-2.5,8.74-4.9,4.8-4.42,6.44,0,1.44.48,1.63,12.1-2.59,12.58-3a26.34,26.34,0,0,0,3.75-4.62c.29-.86-2.69-7.49-2.5-9.22s.38-3.75,0-3.65-6.53.86-6.53.86Z"/><path class="cls-7" d="M176.82,160.69s-2.59,8.17-3,9.51-1,5.4-.67,5.68,12-.39,13.06-.78,3.17-1.63,3.27-2.59-1.15-1.44-1.83-3.75-1.34-11.33-1.34-11.33l-8.45,1.06Z"/><path class="cls-8" d="M147.91,157.43s8.26,5.48,13.54,1.63c0,0,12.68-43.7,11-50.62s-3.75-5.86-3.75-5.86l6.24-4-6.15.78a14.64,14.64,0,0,0-4.61-.67c-3.27.29-6.63,2.31-8.07,7.49s-10.47,49.18-10.47,49.18Z"/><path class="cls-7" d="M172.21,160s10.09,5.81,18.44.41l-4.23-44.3h4.23s7.11-1,7.68-5.4-1.06-16.65-1.06-16.65l-21.52,2.35-5,4.71s-4.42.58-4.51,10.66S172.21,160,172.21,160Z"/><path class="cls-9" d="M191.08,42.5c-.29.82-3,2.88-3.26,3.06a33.55,33.55,0,0,0-1.57,4.2l0,0c-.14.34-6,3.7-6,3.7a15.29,15.29,0,0,1-2.59,0,5.25,5.25,0,0,1-1.14-1.24c-.94-1.22-2.14-3-2.51-3.56-.58-.91-1.82-11.14-1.82-11.14l.43-4.18s2.74-.72,3.26-.77,2.12,1.3,3.07,2.26,4.42,2.16,6.2,1.68,6.34.29,6.53.67A22.2,22.2,0,0,1,191.08,42.5Z"/><path class="cls-10" d="M186,43.09s.27-.63-.93-1.16-6.94.53-8.48-1.51-4.25-6.5-3.91-7,.52,7.22,0,7.3-2-7.7-1.51-8.45,2.93-3,3.31-2.73a65.65,65.65,0,0,0,6.85,3.11C181.94,32.68,186.06,39.88,186,43.09Z"/><path class="cls-9" d="M186.85,53.12a17.08,17.08,0,0,1-1,2.69c-1,2.31-9.08,1-9.08,1l-.22-4.52a5.22,5.22,0,0,0,1.14,1.24,15.23,15.23,0,0,0,2.59,0s3-1.74,4.75-2.84h0a6.68,6.68,0,0,0,1.21-.86l0,0Z"/><path class="cls-10" d="M185,50.67c-.38,1.66-5.19,4.29-6.4,4.44s-2.08-2.84-2.08-2.84a5.22,5.22,0,0,0,1.14,1.24,15.23,15.23,0,0,0,2.59,0S183.28,51.76,185,50.67Z"/><path class="cls-7" d="M173.22,34.24s5.23,8.55,10.71,6.15c0,0,1.58-.29,1.92,2.16s.48-3.27,1-3.94,3.94-.62,2.83,1.73-2.45,4.42-2.83,3.65-.34,2.55-.34,2.55a19.31,19.31,0,0,1-.29,3.26c-.24.67-.48,1.45-.1,1.44s1.1-1.1,1.68-2.35S197,40.3,193,29.83s-22.48-5.24-22.57,2.79,2.3,8.59,2.3,8.59S172.4,34.58,173.22,34.24Z"/><path class="cls-7" d="M194,28.53s10.07,0,10.07,5.57-.48,8.45,3.46,6.63,3.17,7.59,3.17,7.59-.38-5.38-3-4.71-5,2.42-6.44-.52-4.51-12.35-5.57-12.35S194,28.53,194,28.53Z"/><path class="cls-14" d="M192,28s2.78-.56,2.86,0,.58,2.25,0,2.83a1.67,1.67,0,0,1-1.46.36S191.74,28.54,192,28Z"/><path class="cls-2" d="M198.91,56.78v44.37s-7.19-2.69-11.18-3.27a20.59,20.59,0,0,0-3.27-.07c-5.83.22-15.61,1.6-15.61,1.6l-.53-42.63a5,5,0,0,1,2.06-1c1.44-.39,6.17-1.54,6.17-1.54s.07,2.9,2.77,2.89,6,0,7.54-4h9.46A3.46,3.46,0,0,1,198.91,56.78Z"/><path class="cls-12" d="M198.91,73.55v27.6s-7.19-2.69-11.18-3.27a20.59,20.59,0,0,0-3.27-.07l-4.55-1.62s11-4,14.05-4.74,3.18-11.59,1.45-13.54S194,61.72,194,61.72l1.88,1.81Z"/><path class="cls-9" d="M215.34,90.19c-2.5,5.48-27.09,10.38-28.53,11.72s-6.24-2.5-7.4-2.5a46.87,46.87,0,0,0-7.11,1.73c-1.54.48-1.54,0-1.54,0s5-4.7,5.78-5.19,5.15-1.06,5.15-1.06-.75-.86-2.48-.19-1.73-.62-1.73-.62a20,20,0,0,1,4.21-1.49c1.23-.1,4.49,2.7,5.16,3.17.48.34,8.88-4.45,13.57-7.37h0a18.35,18.35,0,0,0,3.09-2.13c.1-.58-1.25-2.31-1.35-2.59a4,4,0,0,1,1.23-.71c2.4-1.16,7.5-3.25,8.08-3C212.26,80.2,215.34,90.19,215.34,90.19Z"/><path class="cls-10" d="M207.67,85.05c-.59,0-7,3.24-7.25,3.34a18.35,18.35,0,0,0,3.09-2.13c.1-.58-1.25-2.31-1.35-2.59a4,4,0,0,1,1.23-.71.47.47,0,0,1,.09.22C203.63,83.92,208.27,85.05,207.67,85.05Z"/><path class="cls-2" d="M201,84.72s11.33-1.63,12-3.65L200.45,55.81s-1.83-2.69-4.13-2.69-2.46,8.07-2.29,10S201,84.72,201,84.72Z"/></g></g></svg>