<svg xmlns="http://www.w3.org/2000/svg" viewBox="0 0 361.92 267.21"><defs><style>.cls-1{fill:#eee;}.cls-2{fill:#fff;}.cls-3{fill:#8dbdc7;}.cls-4{fill:#ff931e;}.cls-5{fill:#ff3a46;}.cls-6{fill:#4e5bd1;}.cls-7{fill:#6774ff;}.cls-8{fill:#ea2f41;}.cls-9{fill:#01008a;}.cls-10{fill:#e5e5e5;}.cls-11{fill:#1631a4;}.cls-12{fill:none;stroke:#ed1c24;stroke-miterlimit:10;stroke-width:0.23px;}.cls-13{fill:#1531a4;}.cls-14{fill:#ff931d;}.cls-15{fill:#db1b2e;}.cls-16{fill:#525cd4;}.cls-17{fill:#cbcbcb;}</style></defs><title>dfggss</title><g id="Layer_2" data-name="Layer 2"><g id="Object"><path class="cls-1" d="M338.13,267.21H69.64S13.15,267,20.05,240.45s46.16-10,47.58-22.38-52.41-10.48-51.72-32.15,29.67-5,38.64-26.08S23.5,150.52,29,124.26,59.31,120,67.63,113.13-2,84.49,0,66.4s49,18.15,62.8-4.8S29,44.17,35.23,11s171.05,17.07,161.43,35.1-36.61,4.67-38,16.53,50.77,39.67,57.84,26.8-1-16-4.53-27.87,19.1-28,39.16-15.45,94.19,38,84.38,52.49-19.23-3.26-24.18,8.13,42,16.21,35.07,39.6-29.43-2.91-35.07,6.1,59.22,26.65,49.56,46.47-27.66-9.39-31.43,5.56,22.15,27.42,28.29,37.57c6.8,11.25-13.69,25.15-13.69,25.15Z"/><path class="cls-2" d="M216,203.6H188.77a8.66,8.66,0,0,1-8.66-8.66h44.54A8.66,8.66,0,0,1,216,203.6Z"/><path class="cls-3" d="M185.62,203.39l-5.31,61.53a2.12,2.12,0,0,0,2.11,2.3h0a2.12,2.12,0,0,0,2.09-1.77l10.25-61.85Z"/><path class="cls-3" d="M219,203.39l5.31,61.53a2.12,2.12,0,0,1-2.11,2.3h0a2.12,2.12,0,0,1-2.09-1.77L209.84,203.6Z"/><path class="cls-4" d="M189.69,194.94h0a6.65,6.65,0,0,1-6.65-6.65v-4.75a6.65,6.65,0,0,1,6.65-6.65h0a6.65,6.65,0,0,1,6.65,6.65v4.75A6.65,6.65,0,0,1,189.69,194.94Z"/><path class="cls-3" d="M183.16,180.16c-3.56-.5-5.94,2.13-5.95,5.58s2.46,5.87,5.95,5a.44.44,0,0,0-.23-.85c-2.9.72-4.83-1.29-4.83-4.16s2.09-5.12,4.83-4.73c.55.08.79-.77.23-.85Z"/><path class="cls-4" d="M210,140.21h0a6.66,6.66,0,0,1-7.32-5.94l-.81-7.78a6.66,6.66,0,0,1,5.94-7.32h0a6.66,6.66,0,0,1,7.32,5.94l.81,7.78A6.66,6.66,0,0,1,210,140.21Z"/><path class="cls-3" d="M210.77,122.36a7.65,7.65,0,0,1,4-.92c2.6.27,2.57,3.47,2.9,5.49s.72,4.17.2,6.11c-.76,2.82-3.6,2.35-5.82,1.63-.54-.18-.77.67-.23.85,2.25.73,5.28,1.24,6.56-1.3,1.08-2.14.55-4.95.2-7.2s-.33-5.47-2.87-6.29c-1.72-.55-3.8.08-5.36.86-.51.25-.06,1,.44.76Z"/><rect class="cls-2" x="89.88" y="193.38" width="64.85" height="11.11"/><path class="cls-3" d="M165.83,146.37s-4.7,25.81-16.85,47l-27.22,0-26.15,0c-12.14-21.2-16.85-47-16.85-47,20.31-7.66,44.84-7.79,44.84-7.79S145.52,138.71,165.83,146.37Z"/><path class="cls-5" d="M95.62,193.38H89.88c-13-18.27-16.23-39.47-16.23-39.47l5.11-7.54S83.47,172.18,95.62,193.38Z"/><path class="cls-5" d="M149,193.38h5.73c13-18.27,16.23-39.47,16.23-39.47l-5.11-7.54S161.12,172.18,149,193.38Z"/><path class="cls-4" d="M89.88,204.49l-22.12,60a2,2,0,0,0,1.88,2.7h0a2,2,0,0,0,1.77-1.07l32.76-61.65Z"/><path class="cls-4" d="M154.73,204.49l22.12,60a2,2,0,0,1-1.88,2.7h0a2,2,0,0,1-1.77-1.07l-32.76-61.65Z"/><rect class="cls-2" x="248.45" y="193.38" width="64.85" height="11.11"/><path class="cls-3" d="M324.41,146.37s-4.7,25.81-16.85,47l-27.22,0-26.15,0c-12.14-21.2-16.85-47-16.85-47,20.31-7.66,44.84-7.79,44.84-7.79S304.1,138.71,324.41,146.37Z"/><path class="cls-5" d="M254.19,193.38h-5.73c-13-18.27-16.23-39.47-16.23-39.47l5.11-7.54S242,172.18,254.19,193.38Z"/><path class="cls-5" d="M307.55,193.38h5.73c13-18.27,16.23-39.47,16.23-39.47l-5.11-7.54S319.7,172.18,307.55,193.38Z"/><path class="cls-4" d="M248.45,204.49l-22.12,60a2,2,0,0,0,1.88,2.7h0a2,2,0,0,0,1.77-1.07l32.76-61.65Z"/><path class="cls-4" d="M313.31,204.49l22.12,60a2,2,0,0,1-1.88,2.7h0a2,2,0,0,1-1.77-1.07L299,204.49Z"/><path class="cls-6" d="M216.79,122.88h-.34l-1.46,1.2,1.12,11s2-.3,2-4.19S217.1,123,216.79,122.88Z"/><path class="cls-7" d="M261.51,140.82s-10.28,19.51-11.6,21.1-5-1.49-7.21-3.34-20.79-25.19-20.79-25.19-3.19.34-3.33.37a11.94,11.94,0,0,0,.24-2.87,36.16,36.16,0,0,0-.31-3.69,38.52,38.52,0,0,0-.77-4.4,1.87,1.87,0,0,0-1.67.57c-.53.75-3.08,1.36-3.08,1.36s-.88-.26-1-.79,3.16-3.78,3.16-3.78,3.78-.88,5.1-.53,6.94,9,7.47,9.84c.4.67,10.82,8.53,16,12.4l.06,0,2.55,1.88,0,0,.23.15c.65.4,6.15-9.84,6.15-9.84l1.31,1h0Z"/><path class="cls-6" d="M255.84,138a44.87,44.87,0,0,0-6.76,5.52c-.58.85.89,3.51,1,3.78a17.88,17.88,0,0,0-3.7-3.5l.23.15c.65.4,6.15-9.84,6.15-9.84l1.31,1h0C255.18,136.44,256.24,137.87,255.84,138Z"/><path class="cls-8" d="M251.37,133.41s6.91,8.74,10.66,6.89l3.52-29.86s2-4.05.7-3.63C261.16,108.38,254.3,125,251.37,133.41Z"/><path class="cls-7" d="M286.76,89.28c-.12,1.11-2.64,3.87-2.64,3.87l-.55.88A48.21,48.21,0,0,0,281,98.48c-.22.71-6.64,3.89-8.64,4.72l-.38.15a2.32,2.32,0,0,1-2.23-.3s-4.69-6.56-5-7.91S263.56,78,263.56,78l.94-2.52s2.93.53,3.22.7,8.55,6.45,8.91,6.33,8.85.18,8.85.18S286.88,88.17,286.76,89.28Z"/><path class="cls-6" d="M280.44,90.34s.49-.62-1.76-3S266.84,84.76,265.2,82s-1.64.94-1.64.94-2.93,0-2-3a54.54,54.54,0,0,1,3.69-8.15l8.44,2.7,6,7.56S281.37,88.17,280.44,90.34Z"/><path class="cls-7" d="M285.42,110.2c-2.93,5-11.89,2.11-11.89,2.11v-7.5a1.88,1.88,0,0,0-1.14-1.61A63.8,63.8,0,0,0,280.51,99a3.13,3.13,0,0,0,.69-1,45.51,45.51,0,0,1,2.38-3.9l1,.46,1.93,11S288.35,105.22,285.42,110.2Z"/><path class="cls-6" d="M280.51,99c-1.24,1.2-4.5,4.4-7,7.37v-1.53a1.88,1.88,0,0,0-1.14-1.61A63.8,63.8,0,0,0,280.51,99Z"/><path class="cls-9" d="M264.44,77a18.81,18.81,0,0,0,5.86,5.74c3.69,2.17,8.94,2.4,9.42,3.87a22.4,22.4,0,0,1,.72,3.75s-.06-4.34,1.35-4.45,3,4.16,1.35,5.74-1.23,2.7-1.23,2.7.48-1.2,1.23-1,.29,3.16.18,3.52.94.64.94.64l1,1.16s10.05-3.21,7.12-20.44-26.49-15-29.89-6.33-1.3,11.28,1.4,12.32C263.9,84.2,263.56,77.38,264.44,77Z"/><path class="cls-9" d="M292.93,72.35s9.54-3.16,11.89,4.81,3.4,14.92,7.27,12.32,5.74,8.07,5.63,7.72-1.52-4.33-5.16-3.16-11.6,5.86-11-1.41-5.6-18.36-8-18.4S292.93,72.35,292.93,72.35Z"/><path class="cls-5" d="M295.21,164.4l-30.89.77s.77.82-2-1.29-1.29-7,.23-11.48,1.05-10.55,1.05-10.55c-9,.94-8.44-7.85-8.44-7.85s6.21-21.76,7.66-24.19a6.65,6.65,0,0,1,3.47-3l7.27-1.17c-.7,9.37,6.2,7,9.84,5.15,2.81-1.44,2.77-7.2,2.77-7.2a90.43,90.43,0,0,1,8.83,2c3.87,1.17,3.75,6.68,4.1,7.5.08.18.27,2.65.52,6.42.91,13.73,2.65,44.68,2.65,44.68Z"/><path class="cls-8" d="M302.23,164.23l-7,.17c-2-1.35-4-2.51-5-2.63-2.67-.31-15-.82-15-.82s7-.35,8-1.64-5.63-3.4-5.63-3.4c2.7-.59,18,4.77,15.73-5.27s.41-39.74.41-39.74l5.94,8.65C300.5,133.28,302.23,164.23,302.23,164.23Z"/><path class="cls-2" d="M269.89,193.43l37.67,0s2.42-4.47,2.56-4.75-.62-15.84-9.76-25.8l-35.28,1.29s-10.9,14.88-15.94,15.47c0,0,1.05,13.79,2.23,13.79Z"/><path class="cls-7" d="M246.33,267.21h16.41a2.79,2.79,0,0,0,1.64-1.72c.23-1.17-3.28-4.92-2.58-11.84s7.74-58.45,8.09-60.23-.34-18.06-7.14-17.83S251,176.65,251,191.77s1.76,60.24.7,62.23-4.92,9.26-6.45,10.9S246.33,267.21,246.33,267.21Z"/><path class="cls-7" d="M290.87,176.6a11.2,11.2,0,0,0-7.38,11.6c.53,9.14,11.43,65.93,9.49,68.91s-6.39,6.74-6.27,8.26a2.1,2.1,0,0,0,1.63,1.84h17.95s1.7-2.89-.64-4.36-3.63-8.67-3.63-8.67.82-47.82.21-57.24C301.53,186.27,299.54,175.6,290.87,176.6Z"/><path class="cls-10" d="M269.89,193.43s6.33-8.81,7.27-17.83c0,0-1.76,11.61,0,12.43s6.3-21.21,6.3-21.21-2.16,23.94.63,26.62Z"/><path class="cls-7" d="M314.07,164.82c-.94,1.17-22.27,6.44-23.44,7.85s-9.76,12.07-9.76,12.07-2.13.7-2.9,0,.82-7.74.7-9.15,2.13-7.77,2.2-8a35.62,35.62,0,0,1-4.66,1.17,3.11,3.11,0,0,1-2.58-.58c.47-.82,5.86-3.42,6.46-3.44l7.49-.19a127.16,127.16,0,0,0,12.88-6.7h0a4.62,4.62,0,0,0,1.33-1v0c.35-1.05-3.8-16.26-3.8-16.26s.79-.54,1.59-1.11c.43-.31.85-.62,1.16-.86.87-.69,8.62-3.65,8.74-2.83S315,163.65,314.07,164.82Z"/><path class="cls-6" d="M301.82,156.81c.35-1.05-3.8-16.26-3.8-16.26s.79-.54,1.59-1.11c.26,1.53,1.92,11.29,2.63,12.81s5.32,1.58,5.32,1.58a16.74,16.74,0,0,0-5.75,3Z"/><path class="cls-5" d="M295.32,142.08s14.88-1.05,16.06-4.22L305,112.55a10.66,10.66,0,0,0-8.52-6.09C289.93,105.51,295.32,142.08,295.32,142.08Z"/><path class="cls-5" d="M144.68,105.24c-.08,1.56-.3,7.66-.57,15.52-.64,19.1-1.55,48.6-1.55,48.6H99.51l-2.38-54.58a.09.09,0,0,1,0,0L96.83,108s-.25-3.92,1.4-4.22c0,0,13.6-2.43,13.7-2.17s16.44-.77,16.44-.77H138S144.89,101.41,144.68,105.24Z"/><path class="cls-8" d="M144.11,120.76c-.64,19.1-1.55,48.6-1.55,48.6H99.51l-2.38-54.58c.13,1.39,2.26,23.69,8,29.82,4.51,4.83,6.81,5.46,7.64,5.49-1.27.11-5.48.3-8.58-1.62-3.7-2.29-1.76,5.63,3.86,6.68l5.63,1.05s-6.38,4.82-3.11,5.45a75.24,75.24,0,0,0,14.24.75c2.75-.34,7.85-.28,9.61-3.39a38.36,38.36,0,0,0,2.64-5.63s-4.74,5.8-9.67,3c0,0,4.6.75,6.55-8.09,0,0-3,4-5.32,2.46,0,0,3.69-1.23,4.57-7.91s7.47-21.62,7.77-31.44Z"/><path class="cls-11" d="M109,254.06s.89,7.28,2.3,9.58-1.15,3.58-1.15,3.58H94.48l-2.68-.89s-1.66-5.11,1.28-7.54,4.73-10.09,4.73-10.09L106,247Z"/><path class="cls-11" d="M135.94,254.06s-.89,7.28-2.3,9.58,1.15,3.58,1.15,3.58H150.5l3.14-1.28s1.2-4.73-1.73-7.15-4.73-10.09-4.73-10.09L139,247Z"/><path class="cls-12" d="M91.06,250.1s14.1,8,20.7,4l7.39-78.82s-.15-12-8.58-12-13.67,12.14-13.92,16.61S91.06,250.1,91.06,250.1Z"/><path class="cls-13" d="M100.74,188.21s13.22,8.24,20.5,4a24.82,24.82,0,0,0,12.68.38c7.28-1.58,6.86-24.91,6.86-24.91s-6.13-8-19,0c0,0-6.71-5.62-10.73-3.58S100.74,188.21,100.74,188.21Z"/><path class="cls-9" d="M91.06,250.1s14.1,8,20.7,4l7.39-78.82s-.15-12-8.58-12-13.67,12.14-13.92,16.61S91.06,250.1,91.06,250.1Z"/><path class="cls-9" d="M153.64,250.1s-14.1,8-20.7,4l-7.39-78.82s.15-12,8.58-12,13.67,12.14,13.92,16.61S153.64,250.1,153.64,250.1Z"/><path class="cls-14" d="M96.81,170.87a8.56,8.56,0,0,0,1.65,2.77c1,1,16.33-1.39,16.33-1.39s9.84-.58,14.31.12,16.63.19,16.63.19,3.16-4.61-1-7.21-28.67-1.7-36.54,0C99.61,167.2,97.29,165.35,96.81,170.87Z"/><path class="cls-7" d="M106,162.4l10.16,1.28s3.19,3.58,4,4.34-.66,1.15-.94,1a50.64,50.64,0,0,1-5-2.68c-.06-.26,2.4,0,2.55.21s2.62,8.22,2.75,8.73.17,8.49-.3,8.94a2.52,2.52,0,0,1-2.32.57c-1.15-.19-9.33-9.26-9.33-9.26l-6-7.09S101.82,163.68,106,162.4Z"/><path class="cls-7" d="M138.88,162.4l-10.16,1.28s-3.19,3.58-4,4.34.66,1.15.94,1a50.64,50.64,0,0,0,5-2.68c.06-.26-2.4,0-2.55.21s-2.62,8.22-2.75,8.73-.17,8.49.3,8.94a2.52,2.52,0,0,0,2.32.57c1.15-.19,9.33-9.26,9.33-9.26l6-7.09S143,163.68,138.88,162.4Z"/><path class="cls-2" d="M105.11,161.83c-3.68.89-4.37,6.52-4.37,6.52s-15.15-8.43-15.41-9.71.72-24.33,2.57-39,6.9-15.6,8.88-15.6,2.11,2.31,2.11,2.31l-.1,46.27v.1c.22.22,1.22,1.63,2.36,3.28C102.95,158.64,105.11,161.83,105.11,161.83Z"/><path class="cls-15" d="M99.16,167.21s3.56,4.16,4.36,3.6,3.69-7,5.37-8-4.44-3.38-5.34-2.86S99.74,165.06,99.16,167.21Z"/><path class="cls-2" d="M155.28,157.23c-.26,1.28-11.14,11.11-11.14,11.11s-.69-5.62-4.37-6.52c0,0,1.45-3.63,2.44-5.78a8.15,8.15,0,0,1,.81-1.5l0-.51-2.28-47.26s.61-4.17,2.59-4.17,7.82-.37,9.68,14.26S155.54,155.95,155.28,157.23Z"/><path class="cls-15" d="M145.73,167.21s-3.56,4.16-4.36,3.6-3.69-7-5.37-8,4.44-3.38,5.34-2.86S145.14,165.06,145.73,167.21Z"/><path class="cls-2" d="M109,99.39v3.74s5.3,3.13,10.28,2.94a12.73,12.73,0,0,0,8.11-3.47V99a1.92,1.92,0,0,0-2-1.92l-14.55.35A1.92,1.92,0,0,0,109,99.39Z"/><path class="cls-7" d="M129.71,70.82s-.89,17.26-2,19.34a19.63,19.63,0,0,1-3,4.06,4.52,4.52,0,0,1-1.75,1.21c-2.17.58-6.19-1-8.09-1.87-3.08-1.49-3.36-2-4-2.74v0a6.39,6.39,0,0,0-1.3-1.14,61.8,61.8,0,0,1-2.83-6.3c-.17-.41-5.84-1.53-5.84-1.53l1.76-8.32s3.32-10.09,3.89-10.85S122,61.6,122,61.6s6.44,1.6,6.68,2.42S129.71,70.82,129.71,70.82Z"/><path class="cls-7" d="M124.67,94.12v3l-13.81.34v-7.8s8.31,1.08,9.13,1.08S124.67,94.12,124.67,94.12Z"/><path class="cls-9" d="M109.79,67.19s14.65-3.63,16.41-.82,10.2.82,12.07-5.74.7-10.67,0-12.07c0,0,1.41,6-3,3.75s-18.87-9.14-22.74-4.69-4.57,9-8.44,10.43S84.83,82.42,97.37,84.89s10.7,1.62,10.7,1.62l-1.34-3.14a47.27,47.27,0,0,1-4.09-2.47c-.47-.47-1.05-3.52,1.35-4.11A19,19,0,0,1,107.09,80c-.64-.81-2.33-4.34-2-6.91S106.51,65.31,109.79,67.19Z"/><path class="cls-16" d="M124.66,94.23a2.31,2.31,0,0,1-1.75,2.14c-8.29.23-11.84-5.22-12-5.55.6.7.89,1.25,4,2.74,1.9.92,5.92,2.45,8.09,1.87A4.52,4.52,0,0,0,124.66,94.23Z"/><path class="cls-17" d="M101.15,156a12.33,12.33,0,0,0-4-.71,24.41,24.41,0,0,0-6.05.79c.14-.16,2.43-2.71,4.13-2.55,0,0-.53-2.46-2.82-2.29,0,0,1.65-1.78,4.43,0,.78.5,1.42,1,2,1.39v.1C99,153,100,154.39,101.15,156Z"/><path class="cls-17" d="M152.33,156.11a24.42,24.42,0,0,0-6.05-.79,12.38,12.38,0,0,0-4.06.72,8.15,8.15,0,0,1,.81-1.5l0-.51a25.12,25.12,0,0,1,3.59-2.76c2.78-1.76,4.43,0,4.43,0-2.29-.18-2.81,2.29-2.81,2.29C149.9,153.4,152.19,156,152.33,156.11Z"/></g></g></svg>