<svg xmlns="http://www.w3.org/2000/svg" viewBox="0 0 203.64 187.65"><defs><style>.cls-1{fill:#efefef;}.cls-2{fill:#505cd4;}.cls-3{fill:#1631a4;}.cls-4{fill:#010188;}.cls-5{fill:#fff;}.cls-6{fill:#7aa4c1;}.cls-7{fill:#ff3a46;}.cls-8{fill:#ff931e;}.cls-9{fill:#6774ff;}.cls-10{fill:#4e5bd0;}.cls-11{fill:#01008a;}.cls-12{fill:#ea2f41;}.cls-13{fill:none;stroke:#ed1c24;stroke-miterlimit:10;stroke-width:0.16px;}.cls-14{fill:#1531a4;}.cls-15{fill:#db1b2e;}.cls-16{fill:#cbcbcb;}</style></defs><title>dfggds</title><g id="Layer_2" data-name="Layer 2"><g id="Object"><path class="cls-1" d="M194.07,187.43H16.22S-5.64,173.3,1.39,158.66s26.88,6.68,32.83-6.34S-.95,127.75,10.76,107.19s22.32,8.74,32.54-2.1S.81,71.95,7.25,53.23s39.29,17.37,53,.5S27,29.23,36.75,12.84s148,22,138.63,40.89-28.51-4-33.31,6.55,49.57,14.35,41.71,29.14-25.05-1.1-29,11.82,56.33,24.55,47.54,42.46,12.88,22.44-8.2,43.74h0Z"/><path class="cls-2" d="M40,187.43H51.22s2.31-4.31-5.61-5,2.31-3.3,4-6.28-4.29,1.51-6.28-1.39,12.19-2.9,8.24-12.81-3.95,3.3-9.89,3.63-.33-25.14-1.65-29.74-5.75,28.3-9.05,29-4.62-3.63-5.72-5.72-9.25.77-6.06,5.39,10.13,5,7.6,6.94-5.5.66-7.38-.88-5.95,4.07-.22,5.84,5.61,3.95,1.87,4.73-4.23,3.38-4.81,6.32Z"/><path class="cls-3" d="M31.49,167.79s1.87-28.18-10.79-30.93C20.7,136.86,13.11,157.65,31.49,167.79Z"/><path class="cls-3" d="M38.76,167.79s-8.37-24,9-28.29C47.79,139.5,56.3,158.44,38.76,167.79Z"/><path class="cls-4" d="M36.31,187.45c-.21-5-13-43.09-13.12-43.48l.83-.28c.53,1.57,13,38.58,13.17,43.72Z"/><path class="cls-4" d="M33.82,187.65l-.76-.44c2.58-4.44,9-36.68,9.05-37l.86.17C42.7,151.71,36.46,183.09,33.82,187.65Z"/><path class="cls-4" d="M167,187.43H155.74s-2.31-4.31,5.61-5-2.31-3.3-4-6.28,4.29,1.51,6.28-1.39-12.19-2.9-8.24-12.81,3.95,3.3,9.89,3.63.33-25.14,1.65-29.74,5.75,28.3,9.05,29,4.62-3.63,5.72-5.72,9.25.77,6.06,5.39-10.13,5-7.6,6.94,5.5.66,7.38-.88,5.95,4.07.22,5.84-5.61,3.95-1.87,4.73,4.23,3.38,4.81,6.32Z"/><path class="cls-2" d="M175.47,167.79s-1.87-28.18,10.79-30.93C186.26,136.86,193.85,157.65,175.47,167.79Z"/><path class="cls-3" d="M167.32,167.79s8.37-24-9-28.29C158.3,139.5,149.78,158.44,167.32,167.79Z"/><path class="cls-3" d="M170.65,187.45l-.88,0c.21-5.14,12.64-42.15,13.17-43.72l.83.28C183.65,144.35,170.86,182.43,170.65,187.45Z"/><path class="cls-2" d="M172.27,187.65c-2.65-4.56-8.89-35.94-9.15-37.27l.86-.17c.06.33,6.47,32.57,9,37Z"/><rect class="cls-5" x="78.81" y="125.94" width="54.01" height="9.26"/><path class="cls-6" d="M142.07,86.78s-3.92,21.49-14,39.15l-22.67,0-21.78,0c-10.11-17.66-14-39.15-14-39.15C86.47,80.4,106.9,80.3,106.9,80.3S125.15,80.4,142.07,86.78Z"/><path class="cls-7" d="M83.59,125.94H78.81C68,110.72,65.3,93.06,65.3,93.06l4.26-6.28S73.47,108.28,83.59,125.94Z"/><path class="cls-7" d="M128,125.94h4.77c10.85-15.21,13.51-32.87,13.51-32.87l-4.26-6.28S138.14,108.28,128,125.94Z"/><path class="cls-8" d="M78.81,135.19l-18.43,50A1.67,1.67,0,0,0,62,187.43h0a1.67,1.67,0,0,0,1.48-.89l27.28-51.35Z"/><path class="cls-8" d="M132.82,135.19l18.43,50a1.67,1.67,0,0,1-1.57,2.25h0a1.67,1.67,0,0,1-1.48-.89l-27.28-51.35Z"/><path class="cls-9" d="M110.91,30.16s-1.2,8.38-1.68,9.81a3.6,3.6,0,0,1-.63,1,30.68,30.68,0,0,1-3.76,3.54,23,23,0,0,1-3.35,0A14.88,14.88,0,0,1,97,41a6,6,0,0,1-.64-1,53.18,53.18,0,0,1-3.19-8.2L91.36,20.11,108.44,18Z"/><path class="cls-10" d="M93.44,30.48a9.29,9.29,0,0,1,.29-3c.39-.88,1.32-5.22,2.2-5.37s13.25,6.25,13.57,6.1.54,2.22.54,2.22l-.33-6.3A44.61,44.61,0,0,0,105.64,20c-.68-.34-14.11-.15-14.28.1s1.06,8.84,1.06,8.84S92.75,30.26,93.44,30.48Z"/><path class="cls-9" d="M93.44,30.48s-.88-2.15-2.07-1.91-2.23,2.07-1.52,3.19,4.15,2.63,4.63,2.31S93.44,30.48,93.44,30.48Z"/><path class="cls-9" d="M109.71,27.61s1.68-2.23,2.47-1.2,1.55,4.2,0,4.92-2.63.42-2.47-.06A27.83,27.83,0,0,0,109.71,27.61Z"/><path class="cls-9" d="M109.24,47.34c.16.56-12.85,0-12.85,0v-7.6a7.84,7.84,0,0,0,.46.74l.18.23a14.84,14.84,0,0,0,4.47,3.51,22.82,22.82,0,0,0,3.35,0,37.13,37.13,0,0,0,3-2.67c.29-.3.55-.59.78-.87C108.83,43.41,109.14,47,109.24,47.34Z"/><path class="cls-10" d="M107.83,41.56a12.56,12.56,0,0,1-3.31,3.73c-.58.34-3.51.15-5-.49-1-.42-2.06-2.79-2.64-4.31l.18.23a14.84,14.84,0,0,0,4.47,3.51,22.82,22.82,0,0,0,3.35,0A37.13,37.13,0,0,0,107.83,41.56Z"/><path class="cls-11" d="M92.82,29.39s1-7.69,3.57-7.93,8.19.45,10.85,2.07,3.11,7.74,3.11,7.74-.1-4.57.56-4.85,1.76.85,1.85,1.15.94-.53.94-.53,3.27-4.23,1.68-7.1-1.52-3.59-1.52-3.59,3.51-5.59,2.79-10.13-1-6.22-1-6.22-1.28,9.42-5.43,8.46S96.9,1.84,92.82,6.94s-4,13.17-4,13.17S81.63,29,85.54,31.27a25,25,0,0,0,8.39,2.84c-.33-.13-4.07-1.88-3.76-3.47S91.47,28.46,92.82,29.39Z"/><path class="cls-7" d="M124.45,52.53c-.07,1.22-.23,5.8-.44,11.8-.53,15.84-1.33,41.61-1.33,41.61H86.83l-2.12-48.5-.11-2.57s-.21-3.27,1.17-3.51c0,0,11.33-2,11.41-1.81s13.7-.64,13.7-.64h8S124.63,49.34,124.45,52.53Z"/><path class="cls-12" d="M124,64.33c-.53,15.84-1.33,41.61-1.33,41.61H86.83l-2.12-48.5,1.6-1a97.73,97.73,0,0,0,1.55,12C89.38,75.72,92,82.56,94,84.67a20,20,0,0,0,7.12,4.88s-5.36,1.66-8.78-2.25c0,0-1.36,6.83,3.32,9s9.73,4.08,12,3.84,12.28-3.55,12.54-6.19c0,0-4.82,2-6.28,1.46,0,0,5-4.3,6.28-7.61s1-19.91,1-19.91-.47-12.48-.06-14.08C121.36,53,122.74,58.67,124,64.33Z"/><path class="cls-3" d="M94.77,176.47s.74,6.06,1.91,8-1,3-1,3H82.64l-2.23-.74s-1.38-4.26,1.06-6.28,3.94-8.4,3.94-8.4l6.81-1.38Z"/><path class="cls-3" d="M117.17,176.47s-.74,6.06-1.91,8,1,3,1,3H129.3l2.61-1.06s1-3.94-1.44-6-3.94-8.4-3.94-8.4l-6.81-1.38Z"/><path class="cls-13" d="M79.8,173.17s11.74,6.7,17.24,3.3l6.15-65.64s-.12-10-7.14-10-11.38,10.11-11.6,13.83S79.8,173.17,79.8,173.17Z"/><path class="cls-8" d="M84.58,107.19A7.13,7.13,0,0,0,86,109.5c.83.8,13.6-1.15,13.6-1.15s8.19-.49,11.92.1,13.85.16,13.85.16,2.63-3.84-.87-6-23.87-1.42-30.43,0C86.91,104.13,85,102.59,84.58,107.19Z"/><path class="cls-14" d="M87.85,121.63s11,6.86,17.08,3.35a20.67,20.67,0,0,0,10.56.32c6.06-1.32,5.71-20.75,5.71-20.75s-5.11-6.7-15.8,0c0,0-5.59-4.68-8.94-3S87.85,121.63,87.85,121.63Z"/><path class="cls-11" d="M79.8,173.17s11.74,6.7,17.24,3.3l6.15-65.64s-.12-10-7.14-10-11.38,10.11-11.6,13.83S79.8,173.17,79.8,173.17Z"/><path class="cls-11" d="M131.91,173.17s-11.74,6.7-17.24,3.3l-6.15-65.64s.12-10,7.14-10,11.38,10.11,11.6,13.83S131.91,173.17,131.91,173.17Z"/><path class="cls-9" d="M92.21,100.14l8.46,1.06s2.66,3,3.3,3.62-.55,1-.78.85A42.18,42.18,0,0,1,99,103.43c-.05-.21,2,0,2.13.18s2.18,6.84,2.29,7.27.14,7.07-.25,7.45a2.1,2.1,0,0,1-1.93.48c-1-.16-7.77-7.71-7.77-7.71l-5-5.9S88.76,101.2,92.21,100.14Z"/><path class="cls-9" d="M119.62,100.14l-8.46,1.06s-2.66,3-3.3,3.62.55,1,.78.85a42.18,42.18,0,0,0,4.16-2.23c.05-.21-2,0-2.13.18s-2.18,6.84-2.29,7.27-.14,7.07.25,7.45a2.1,2.1,0,0,0,1.93.48c1-.16,7.77-7.71,7.77-7.71l5-5.9S123.07,101.2,119.62,100.14Z"/><path class="cls-5" d="M91.49,99.66c-3.06.74-3.64,5.43-3.64,5.43S75.24,98.06,75,97s.6-20.27,2.14-32.45,5.75-13,7.4-13,1.75,1.93,1.75,1.93l-.08,35.93v2.69c.2.2,1.21,1.63,2.28,3.19C89.93,97.36,91.49,99.66,91.49,99.66Z"/><path class="cls-15" d="M86.53,104.14s3,3.47,3.63,3,3.07-5.81,4.48-6.7-3.7-2.81-4.45-2.38S87,102.35,86.53,104.14Z"/><path class="cls-5" d="M133.28,95.83c-.21,1.06-9.27,9.26-9.27,9.26s-.58-4.68-3.64-5.43c0,0,.85-2.13,1.61-3.87a13.22,13.22,0,0,1,1.1-2.19l-.13-2.68-1.79-37.1s.51-3.47,2.16-3.47,6.52-.3,8.06,11.88S133.49,94.76,133.28,95.83Z"/><path class="cls-15" d="M125.32,104.14s-3,3.47-3.63,3-3.07-5.81-4.48-6.7,3.7-2.81,4.45-2.38S124.83,102.35,125.32,104.14Z"/><path class="cls-5" d="M94.71,47.66v3.12s4.41,2.61,8.56,2.45A10.6,10.6,0,0,0,110,50.33v-3a1.6,1.6,0,0,0-1.64-1.6l-12.11.29A1.6,1.6,0,0,0,94.71,47.66Z"/><path class="cls-16" d="M88.51,95.29a3.56,3.56,0,0,0-2-1,44.56,44.56,0,0,0-6.3.22S82.1,92.85,83.59,93s-.42-2-2.69-1.46c0,0,2-2,3.69-1.1s1.41-.31,1.53-.88a.16.16,0,0,1,.12-.14l.08,2.65C86.52,92.27,87.43,93.73,88.51,95.29Z"/><path class="cls-16" d="M130.75,94.53a44.56,44.56,0,0,0-6.3-.22A4.2,4.2,0,0,0,122,95.78a13.22,13.22,0,0,1,1.1-2.19l-.13-2.68.19-.62s1.62-1.32,1.74-.74-.11,1.84,1.53.88,3.69,1.1,3.69,1.1c-2.27-.59-4.17,1.61-2.69,1.46S130.75,94.53,130.75,94.53Z"/></g></g></svg>