<svg xmlns="http://www.w3.org/2000/svg" xmlns:xlink="http://www.w3.org/1999/xlink" viewBox="0 0 34.47 71.55"><defs><style>.cls-1{fill:url(#Degradado_sin_nombre_4);}.cls-2{fill:#f3c744;}.cls-3{fill:url(#Degradado_sin_nombre_6);}.cls-4{fill:#1c1c38;}.cls-5{fill:url(#Degradado_sin_nombre_6-2);}.cls-6{fill:url(#Degradado_sin_nombre_5);}.cls-7{fill:#ffffeb;}.cls-8{fill:#e5a89c;}.cls-9{fill:url(#Degradado_sin_nombre_4-2);}.cls-10{fill:url(#Degradado_sin_nombre_4-3);}.cls-11,.cls-13{fill:#2d0d60;}.cls-11{fill-rule:evenodd;}.cls-12{fill:#f1ac85;}</style><linearGradient id="Degradado_sin_nombre_4" x1="-160.99" y1="37.83" x2="-153.41" y2="21.69" gradientTransform="matrix(-1, 0, 0, 1, -128.24, 0)" gradientUnits="userSpaceOnUse"><stop offset="0.07" stop-color="#fcc4b7"/><stop offset="0.31" stop-color="#f7b8a6"/><stop offset="0.79" stop-color="#e99a7b"/><stop offset="1" stop-color="#e28c66"/></linearGradient><linearGradient id="Degradado_sin_nombre_6" x1="17.98" y1="32.41" x2="17.98" y2="42.48" gradientTransform="translate(4.83)" gradientUnits="userSpaceOnUse"><stop offset="0.07" stop-color="#8347e2"/><stop offset="0.27" stop-color="#773bd1"/><stop offset="0.68" stop-color="#591ca6"/><stop offset="1" stop-color="#3d007e"/></linearGradient><linearGradient id="Degradado_sin_nombre_6-2" x1="-133.72" y1="56.43" x2="-148.3" y2="48.24" gradientTransform="matrix(-1, 0, 0, 1, -128.24, 0)" xlink:href="#Degradado_sin_nombre_6"/><linearGradient id="Degradado_sin_nombre_5" x1="-144.31" y1="67.24" x2="-144.31" y2="37.3" gradientTransform="matrix(-1, 0, 0, 1, -128.24, 0)" gradientUnits="userSpaceOnUse"><stop offset="0.07" stop-color="#8347e2"/><stop offset="0.27" stop-color="#773bd1"/><stop offset="0.68" stop-color="#591ca6"/><stop offset="1" stop-color="#3d007e"/></linearGradient><linearGradient id="Degradado_sin_nombre_4-2" x1="-128.88" y1="42.82" x2="-138.08" y2="26.68" xlink:href="#Degradado_sin_nombre_4"/><linearGradient id="Degradado_sin_nombre_4-3" x1="-151.54" y1="15.83" x2="-142.53" y2="6.98" xlink:href="#Degradado_sin_nombre_4"/></defs><title>Asset 1</title><g id="Layer_2" data-name="Layer 2"><g id="OBJECTS"><path class="cls-1" d="M33.25,39.21h0a2.1,2.1,0,0,1-2.77-1L23.72,23.28a2.1,2.1,0,0,1,1-2.77h0a2.1,2.1,0,0,1,2.77,1l6.76,14.89A2.1,2.1,0,0,1,33.25,39.21Z"/><path class="cls-2" d="M29.64,23.43l-2.18-4.8A3.25,3.25,0,0,0,23.17,17h0a3.25,3.25,0,0,0-1.61,4.29l2.18,4.8S27.05,27.89,29.64,23.43Z"/><path class="cls-3" d="M19.78,39.29a1.37,1.37,0,0,0-.16.63V47c0,1.38,1.39,2.54,3.13,2.56h0c1.74,0,3.19-1.09,3.21-2.47l0-9a.8.8,0,0,0-.55-.77C24.23,36.94,21.36,36.37,19.78,39.29Z"/><path d="M4.93,53.4c-.84.36-.28,2.55-.31,4.67-.05,2.95.58,5.74,1.88,6.51a.86.86,0,0,0,.87.09l1.31-.73c.76-.37,1.28-2.1,2-4.68.77-2.84,1.24-4.64-1.88-6.51-.89-.54-1.41-.66-1.7-.51Z"/><path class="cls-4" d="M10.66,59.27c-.94,3.43-1.54,5.36-2.84,4.58s-1.57-3.62-1.1-6.95c.41-2.92-1.06-6,2.06-4.15S11.43,56.43,10.66,59.27Z"/><path class="cls-5" d="M11.24,56.61a1.37,1.37,0,0,0,.63-.18l12.89-7.15c1.21-.67,1.51-2.47.66-4h0c-.85-1.52-2.53-2.22-3.74-1.55L7.12,51.81a.8.8,0,0,0-.4.86C7,53.92,7.93,56.7,11.24,56.61Z"/><path d="M13.22,67.2c-.09.91,2.1,1.48,3.93,2.54,2.55,1.47,5.3,2.27,6.61,1.52a.86.86,0,0,0,.5-.72V69c0-.85-1.21-2.14-3.13-4C19,63,17.68,61.7,14.52,63.52c-.9.52-1.26.91-1.27,1.24Z"/><path class="cls-4" d="M21.13,65c2.55,2.48,3.94,4,2.63,4.71s-3.92-.38-6.61-2.41c-2.35-1.78-5.78-2-2.63-3.81S19,63,21.13,65Z"/><path class="cls-6" d="M19.09,63.24a1.37,1.37,0,0,0,.15-.63V40.73c0-1.38-1.43-2.51-3.17-2.51h0c-1.74,0-3.17,1.13-3.17,2.51V64.52a.8.8,0,0,0,.56.76C14.68,65.65,17.56,66.17,19.09,63.24Z"/><path class="cls-7" d="M13.94,44.66a.58.58,0,0,0,.27.09c1.4.11,6.44-1,11.48-6.67a2.64,2.64,0,0,0,.68-1.63V20.33a2.65,2.65,0,0,0-1.13-2.46l-3.79-2.21a2.65,2.65,0,0,0-2.7.25l-5.17,3a8.42,8.42,0,0,0-3.8,6.57V41.67a.82.82,0,0,0,.37.78Z"/><path class="cls-8" d="M15.41,19.89A1.32,1.32,0,0,0,16.19,21,4.18,4.18,0,0,0,20,21a1.32,1.32,0,0,0,.78-1.11V16.38A1.32,1.32,0,0,0,20,15.27a4.18,4.18,0,0,0-3.78,0,1.32,1.32,0,0,0-.78,1.11Z"/><path class="cls-9" d="M1.15,43h0a2.1,2.1,0,0,1-.92-2.81L7.6,25.55a2.1,2.1,0,0,1,2.81-.92h0a2.1,2.1,0,0,1,.92,2.81L4,42A2.1,2.1,0,0,1,1.15,43Z"/><path class="cls-2" d="M11.2,30.25l2.38-4.71a3.25,3.25,0,0,0-1.43-4.35h0A3.25,3.25,0,0,0,7.8,22.62L5.42,27.33S6.1,31,11.2,30.25Z"/><circle class="cls-10" cx="18.15" cy="10.77" r="7.36"/><path class="cls-11" d="M12,2.07C5.72,4.23,8.85,13.41,13.42,16.73c2.24-1.22-.48-3.41,2.57-1.89.61-3-.76-2.06.07-5.78,3.2,1.67,9.42-.35,10.39-3.44C25.34,5.13,24.17,2,21.56.81,18.21-.68,13.92,0,12,2.07Z"/><path class="cls-12" d="M15.69,14.91c0,.88-.62,1.23-1.38.79a3,3,0,0,1-1.38-2.38c0-.88.62-1.23,1.38-.79A3,3,0,0,1,15.69,14.91Z"/><path class="cls-13" d="M22.81,11a5.48,5.48,0,0,0-2.26,4.38c0,1.7,1,2.49,2.26,1.77a5.48,5.48,0,0,0,2.26-4.38C25.07,11.11,24.06,10.32,22.81,11Zm0,3.07c-.78.45-1.42.56-1.42.24S22,13.4,22.81,13s1.42-.56,1.42-.24S23.59,13.66,22.81,14.11Z"/></g></g></svg>