<svg xmlns="http://www.w3.org/2000/svg" viewBox="0 0 49.89 53.84"><defs><style>.cls-1{fill:#4f4fbf;}.cls-2{fill:#382b99;}.cls-3{fill:#fff9ff;}.cls-4{fill:#97a4f6;}</style></defs><title>1</title><g id="Layer_2" data-name="Layer 2"><g id="OBJECTS"><path class="cls-1" d="M1.17,14.69,26.28.31A2.23,2.23,0,0,1,27.83,0c.71.16,1.38.39,1.38,1l0,23.34L27,25.7l22.8,11.11.05.9a1.09,1.09,0,0,1-.54.94L23.62,53.53a2.34,2.34,0,0,1-2.34,0L.39,41.45A.71.71,0,0,1,0,40.84L0,16.71A2.34,2.34,0,0,1,1.17,14.69Z"/><path class="cls-2" d="M.74,40.76,29.27,24.49,29.32,1.2A.87.87,0,0,0,28,.44L1.71,15.51a1.85,1.85,0,0,0-.93,1.6Z"/><polygon class="cls-3" points="28.15 1.79 2.04 16.78 1.98 38.7 28.15 23.68 28.15 1.79"/><path class="cls-4" d="M.76,40.76,29.27,24.32,49.43,36a.87.87,0,0,1,0,1.51L23.18,52.66a1.85,1.85,0,0,1-1.85,0Z"/><polygon class="cls-3" points="24.02 43.77 33.81 38.12 39.4 41.57 29.62 47.22 24.02 43.77"/></g></g></svg>