<svg xmlns="http://www.w3.org/2000/svg" viewBox="0 0 103.52 286.95"><defs><style>.cls-1{fill:#fff;}.cls-2{fill:#08b7ae;}.cls-3{fill:#00dad7;}.cls-4{fill:#ffe6cf;}.cls-5{fill:#9b9b9b;}.cls-6{fill:#ff2a64;}.cls-7{fill:#1d2732;}.cls-8{fill:#b5164f;}.cls-9{fill:#f2c9a7;}.cls-10{fill:#e5e5e5;}</style></defs><title>555</title><g id="Layer_2" data-name="Layer 2"><g id="OBJECTS"><path class="cls-1" d="M62.82,132.4c-.08,1.65-1,18.45-2.68,18.07A6.48,6.48,0,0,1,58,148.71c-.88-.93-1.89-2.13-2.86-3.33-2-2.46-3.79-4.93-3.95-5.14h0C57.21,136.82,62.48,133.37,62.82,132.4Z"/><path class="cls-2" d="M27.68,155.59c5.22,4.52,7,5.8,8.9,4.45a8,8,0,0,0,1.57-2.29c-.13,1.64-1.67,10.75-3.38,21.1-2.29,13.76-4.88,29.73-4.88,33.37,0,6.38-1.26,54.48-1.26,54.48a17,17,0,0,1-10.81,1s-4.74-32.68-.87-42.92,3.14-22,1.79-36.32,2.45-38,2.45-38C23.55,152.22,25.89,154,27.68,155.59Z"/><path class="cls-3" d="M42.45,227.32c.16,11.06,3.44,30.53,3.44,30.53a19.31,19.31,0,0,1-5.32-1.63c-1.75-.83-2.82-1.68-2.77-1.93.09-.45.18-19.87,0-27.51s-1.53-20.4,0-26.6-3-21.33-3-21.33c1.71-10.35,3.25-19.46,3.38-21.1h0l5.69-4.14C43.2,158.82,41,179.39,44,188,47.46,197.79,42.29,216.27,42.45,227.32Z"/><path class="cls-4" d="M103.06,78.11c.9,2.7.54,9.62-1.53,11.32a5.72,5.72,0,0,1-4.39.73L98.89,77A11.06,11.06,0,0,1,103.06,78.11Z"/><path class="cls-5" d="M102.58,49.06,98.89,77a2.75,2.75,0,0,0-2.84,1.69c-1.4,3.46-.59,4.9-1.62,8.27-.55,1.8.91,2.88,2.71,3.24L97,91.59,73.22,104.72,74,98.41l1-8.12,1.39-10.66,2-15.72Z"/><path class="cls-4" d="M98.89,77l-1.75,13.2c-1.8-.36-3.26-1.44-2.71-3.24,1-3.37.22-4.81,1.62-8.27A2.75,2.75,0,0,1,98.89,77Z"/><path class="cls-1" d="M76.72,268.16c2.6.82,3.07,2,3,3.31-.72,1.44-6.85,3.4-10.35,2.77S40.4,261.3,40.4,261.3a50.77,50.77,0,0,1,.17-5.08,19.31,19.31,0,0,0,5.32,1.63c3.32.49,7.18-1.27,9.23-2.83C57,258.22,72.5,266.83,76.72,268.16Z"/><path class="cls-6" d="M79.7,271.47c-.06.81-.34,1.67-.46,2.5-.32,2.16-4.41,4.5-7.82,4S43,268,41.39,266.24c-.7-.78-.94-2.87-1-4.94,0,0,25.44,12.31,28.95,12.94S79,272.91,79.7,271.47Z"/><path class="cls-4" d="M62.83,85.25a6.92,6.92,0,0,0,2.47-2.11c.88-1.3,3.45-2.16,5.91-2.7a44.37,44.37,0,0,1,5.27-.81L75.09,90.29s-4.45,2-7.5,2.11a8,8,0,0,0-4.42,1.23c-1.48-1.43-3.87-4.09-4.47-6.88A15.32,15.32,0,0,0,62.83,85.25Z"/><path class="cls-1" d="M75.09,90.29l-1,8.12h0c-8,3.27-11.2,2.08-11.2,2.08h-.06c0-3,.06-5,.06-5.13h0a9.8,9.8,0,0,1,1.55-.63s-.5-.4-1.21-1.09a8,8,0,0,1,4.42-1.23C70.64,92.27,75.09,90.29,75.09,90.29Z"/><path class="cls-1" d="M71.19,80.36l0,.08c-2.46.54-5,1.4-5.91,2.7a6.92,6.92,0,0,1-2.47,2.11C62.87,57.41,51,47,51,47c1.05-.31,1.76-1.43,2.32-2.92a40,40,0,0,0,1.28-4.76,10.8,10.8,0,0,1,8.26,6.51C65.66,51.91,71.19,80.36,71.19,80.36Z"/><path class="cls-7" d="M63.56,4.74c2.7,1.78-1,4.61-2.94,9.65A7.49,7.49,0,0,1,57,18.5c-2.59,1.35-6,1.43-9.51.63l-7-1.63c.64,5.59-4.13,10.74-4.13,10.74a9.5,9.5,0,0,0-.2-1.95,8.25,8.25,0,0,0-3.31-5.35C33.92,16.49,43.13,10.57,48.69,7.2S56.26,5,56.26,5C58.83,6.15,60.86,3,63.56,4.74Z"/><path class="cls-1" d="M11.78,104.27C6.08,93.87,0,77.28,0,70.11c0-6.84,2.55-9.91,4.27-11.5,11.46,8.56,18.65,44.8,18.65,44.8a17.72,17.72,0,0,1,4.76-6.18h0a22.66,22.66,0,0,1,11.89-5.61c7.72-.91,19-6.67,19-6.67a6.13,6.13,0,0,0,.11,1.81c.6,2.79,3,5.45,4.47,6.88.71.69,1.21,1.09,1.21,1.09a9.8,9.8,0,0,0-1.55.63h0c-6.07,2.9-24,14.2-27.3,15.87-2.36,1.18-6.75,3.75-11.27,3.73a10,10,0,0,1-7.54-3.32,38.75,38.75,0,0,1-4.94-7.36Z"/><path class="cls-6" d="M51,47s11.9,10.4,11.86,38.24a15.32,15.32,0,0,1-4.13,1.5,6.13,6.13,0,0,1-.11-1.81s-11.3,5.76-19,6.67a22.66,22.66,0,0,0-11.89,5.61C27.56,96.77,20.2,67.77,16.59,61s-8.46-5.73-8.46-5.73c2.32-1.83,5.91-4.54,9.2-7h0s10.75,18.83,32,28C49.3,76.2,55.7,60.1,51,47Z"/><path class="cls-8" d="M11.34,138.58c-1.94-2.33-.72-8.09.44-14.13,1.36-7.08.08-19.48,0-20.17a38.75,38.75,0,0,0,4.94,7.36A10,10,0,0,0,24.26,115c-.63,3.38-1.09,12.94,14.07,12.64,16.63-.33,23.22-6.41,24.32-7.57,0,6.39,0,11.66.18,12.24a1.09,1.09,0,0,1,0,.12h0c-.34,1-5.61,4.42-11.65,7.83h0c-2.36,1.33-4.84,2.66-7.18,3.83h0c-4.57,2.27-8.64,4-10.41,4C28.45,148,17,140.49,13,139.55A2.82,2.82,0,0,1,11.34,138.58Z"/><path class="cls-6" d="M62.83,95.36c0,.16,0,2.15-.06,5.13,0,5-.11,12.89-.12,19.54-1.1,1.16-7.69,7.24-24.32,7.57-15.16.3-14.7-9.26-14.07-12.64,4.52,0,8.91-2.55,11.27-3.73C38.87,109.56,56.76,98.26,62.83,95.36Z"/><path class="cls-2" d="M55.12,255c-2,1.56-5.91,3.32-9.23,2.83,0,0-3.28-19.47-3.44-30.53s5-29.53,1.54-39.37c-3-8.56-.79-29.13-.15-34.35l11.28-8.22c1,1.2,2,2.4,2.86,3.33,0,0-2,47.06-2.86,52.9s1.93,50.45,1.43,51.88A4.31,4.31,0,0,1,55.12,255Z"/><path class="cls-4" d="M57,18.5c0,.91-.15,13.38-1.45,17.14-.37,1.08-.67,2.37-1,3.69a40,40,0,0,1-1.28,4.76C52.73,45.58,52,46.7,51,47a18.86,18.86,0,0,1-2.2.51c-2.56.43-5.5.5-6.76-.15-1.66-.87-9.86-4.94-10.14-8l-1.3,9.79S31.84,56.7,37,59.64A23.31,23.31,0,0,1,25.25,45.38l.4-3,.52-3.87.95-7.11c1.3,2.15,3.35,3.4,5.35,3,2.34-.48,3.88-3.06,3.88-6.16,0,0,4.77-5.15,4.13-10.74l7,1.63C51,19.93,54.41,19.85,57,18.5Z"/><path class="cls-1" d="M49.53,2.25C57.34.81,56.26,5,56.26,5s-2-1.2-7.57,2.18S33.92,16.49,32.84,20.94a4.35,4.35,0,0,0-3.21-.72s-.43-3.81,2-6.06S40.76,4.69,48.06,2.59C48.55,2.46,49,2.34,49.53,2.25Z"/><path class="cls-2" d="M43.84,153.6l-5.69,4.14c2.34-4.38,5.7-13.31,5.83-13.66h0c2.34-1.17,4.82-2.5,7.18-3.83.16.21,2,2.68,3.95,5.14Z"/><path class="cls-8" d="M51,47C55.7,60.1,49.3,76.2,49.3,76.2c-21.21-9.15-32-28-32-28h0l3.17-2.36h0S32,65.1,47.26,71a52.73,52.73,0,0,0,1.41-20.83l-.34-.06c.16-.92.32-1.79.44-2.55v0A18.86,18.86,0,0,0,51,47Z"/><path class="cls-1" d="M48.67,50.15A52.73,52.73,0,0,1,47.26,71C32,65.1,20.51,45.86,20.51,45.86h0l4.75-3.52.4.05-.4,3A23.31,23.31,0,0,0,37,59.64l.13.07a7,7,0,0,0,.91.44l.05,0a6.51,6.51,0,0,0,.88.3c6.81,1.89,7.76-2.22,7.76-2.22s.92-4.43,1.6-8.16Z"/><path class="cls-9" d="M48.77,47.52v0c-.12.76-.28,1.63-.44,2.55-.68,3.73-1.6,8.16-1.6,8.16s-.95,4.11-7.76,2.22a6.51,6.51,0,0,1-.88-.3l-.05,0-.91-.44L37,59.64c-5.16-2.94-6.43-10.52-6.43-10.52l1.3-9.79c.28,3.1,8.48,7.17,10.14,8C43.27,48,46.21,48,48.77,47.52Z"/><path class="cls-7" d="M48,2.39l.06.2c-7.3,2.1-14.2,9.46-16.46,11.57s-2,6.06-2,6.06c-2.82.57-4.47,4.2-3.69,8.12,0,0-.62-1.23-3.55-6.11s-.67-7.92.59-11.85A7,7,0,0,1,28.4,5.89s.82-4.38,6.23-5.62S48,2.39,48,2.39Z"/><path class="cls-1" d="M44,144.08c-.13.35-3.49,9.28-5.83,13.66h0A8,8,0,0,1,36.58,160c-1.92,1.35-3.68.07-8.9-4.45-1.79-1.55-4.13-3.37-6.49-5.12-4.51-3.34-9.06-6.43-9.85-6.88-1.18-.66-.05-4.84,0-5a2.82,2.82,0,0,0,1.61,1c4,.94,15.5,8.49,20.62,8.49C35.34,148,39.41,146.35,44,144.08Z"/><path class="cls-8" d="M36.15,26.29a9.5,9.5,0,0,1,.2,1.95c0,3.1-1.54,5.68-3.88,6.16-2,.4-4-.85-5.35-3a9.21,9.21,0,0,1-1.18-3.06c-.78-3.92.87-7.55,3.69-8.12a4.35,4.35,0,0,1,3.21.72A8.25,8.25,0,0,1,36.15,26.29Zm-4.51,4.77C33.08,30.77,34,29,33.55,27s-1.89-3.33-3.34-3S27.89,26.06,28.29,28,30.18,31.35,31.64,31.06Z"/><path class="cls-1" d="M33.55,27c.4,2-.47,3.79-1.91,4.08s-3-1.07-3.35-3,.46-3.79,1.92-4.08S33.16,25,33.55,27Z"/><path class="cls-6" d="M31.51,282.64a3.15,3.15,0,0,1-1.9,2.95c-7.66,3.22-13.79.08-15.11-2.85a9,9,0,0,1-.46-3.28s2.59,4.27,9.2,4.13,8-4.13,8-4.13h0A30.28,30.28,0,0,1,31.51,282.64Z"/><path class="cls-1" d="M31.25,279.46h0s-1.4,4-8,4.13-9.2-4.13-9.2-4.13a84,84,0,0,1,1.39-12.34,22.65,22.65,0,0,0,2.39.61,17,17,0,0,0,10.81-1A121,121,0,0,1,31.25,279.46Z"/><path class="cls-10" d="M27.68,97.22h0a17.72,17.72,0,0,0-4.76,6.18S15.73,67.17,4.27,58.61c.63-.6,1.15-1,1.39-1.31a25.27,25.27,0,0,1,2.47-2.07S13,54.11,16.59,61,27.56,96.77,27.68,97.22Z"/><path class="cls-3" d="M15.43,267.12c-.86-.28-1.36-.5-1.36-.5-1.62-4.13-3.24-48-2.73-52.93a196.31,196.31,0,0,0,0-33.47c-.91-8.4,0-36.63,0-36.63.79.45,5.34,3.54,9.85,6.88,0,0-3.8,23.73-2.45,38s2.07,26.07-1.79,36.32.87,42.92.87,42.92A22.65,22.65,0,0,1,15.43,267.12Z"/></g></g></svg>