<svg xmlns="http://www.w3.org/2000/svg" xmlns:xlink="http://www.w3.org/1999/xlink" viewBox="0 0 69.22 137.51"><defs><style>.cls-1{fill:#4f4fbf;}.cls-2{fill:#e296b3;}.cls-3{fill:#e7ebf2;}.cls-4{fill:#ebefff;}.cls-5{fill:#ac69b5;}.cls-6{isolation:isolate;}.cls-7{clip-path:url(#clip-path);}.cls-8{clip-path:url(#clip-path-2);}.cls-9{clip-path:url(#clip-path-3);}.cls-10{fill:#97a4f6;}.cls-11{fill:#382b99;}.cls-12{fill:#fff;}</style><clipPath id="clip-path"><path class="cls-1" d="M65.74,72V70.61a1,1,0,0,1-.6.84v1.34A1,1,0,0,0,65.74,72Z"/></clipPath><clipPath id="clip-path-2"><path class="cls-1" d="M18.52,77.12v1.34a1,1,0,0,0,.59.83V77.94A1,1,0,0,1,18.52,77.12Z"/></clipPath><clipPath id="clip-path-3"><path class="cls-1" d="M35,87.19v1.34a3.16,3.16,0,0,0,2.87,0V87.19A3.16,3.16,0,0,1,35,87.19Z"/></clipPath></defs><title>Asset 1</title><g id="Layer_2" data-name="Layer 2"><g id="OBJECTS"><path class="cls-2" d="M53.41,46.47c-9.18,0-20-13.35-22-16a4,4,0,0,1,6.33-4.9h0C41.28,30.18,47.84,36.78,52,38.2,50.56,34,44.53,25,40,20.61a4,4,0,0,1,5.52-5.79C47.76,17,63.06,34.36,59.79,42.53,59.31,43.71,57.74,46.47,53.41,46.47Z"/><rect class="cls-1" x="30.44" y="11.2" width="14.47" height="7.15" transform="translate(19.33 -21.3) rotate(41.63)"/><rect class="cls-3" x="35.2" y="8.64" width="4.96" height="12.27" transform="matrix(-0.66, 0.75, -0.75, -0.66, 73.75, -3.57)"/><path class="cls-1" d="M22.25,4.92a34.81,34.81,0,0,0-5-.5c-1.69.11-3.49,1-4,2.61-.3,1-.08,2.2-.77,3a4.81,4.81,0,0,1-1,.76,4.71,4.71,0,0,0-2.07,4.56A4,4,0,0,0,13,18.62c.89,0,1.87-.26,2.6.25s.79,1.58,1,2.47a4.71,4.71,0,0,0,8.76.9,7.8,7.8,0,0,1,1-1.86c.83-.91,2.21-.94,3.44-1,2-.12,4.19-.66,5.32-2.32a6.63,6.63,0,0,0,.73-4.57,9.06,9.06,0,0,0-1-3.43,11.76,11.76,0,0,0-2.66-2.88c-1.23-1.07-2.86-2.51-4.61-2.48-.94,0-1.39.57-2.27.89A7.11,7.11,0,0,1,22.25,4.92Z"/><path class="cls-4" d="M13.55,65.13c1.21-4.69,2.36-7,1.68-8.6-4.36-10.17-2.83-22.94-2-24C14.67,30.41,25.11,23,27.49,23s6,1.79,6,1.79l7.36,9a8.56,8.56,0,0,1,1.36,8.47L38,54.64l3.73,16.79s-2.13-.27-13.85.27-15.45,2.4-15.45,2.4l-.65-9.71"/><circle class="cls-2" cx="28.48" cy="13.22" r="9.56" transform="translate(-2.04 5.84) rotate(-11.3)"/><path class="cls-2" d="M34.9,16.8l-3.26,9.84h0a6.13,6.13,0,0,1-6.86.71h0a1.51,1.51,0,0,1-.75-1.7l2.43-9.55Z"/><circle class="cls-2" cx="20.32" cy="15.16" r="2.91" transform="translate(-2.58 4.28) rotate(-11.3)"/><path class="cls-1" d="M17.78,13.49c.16-.87,2.09-.59,2.39-.18a5.89,5.89,0,0,1,1.14,1.85c.38-.08.45-.65.36-1.07s-.25-.9,0-1.24a1.07,1.07,0,0,1,.8-.36c2-.26,4.14-.73,5.23-2.51a23.41,23.41,0,0,1,1.18-2.27c1.06-1.36,3.05-1.4,4.25-2.63.67.6,1.37,1.06,2.07,1.61A7.47,7.47,0,0,1,37,8.79c1.3-1.37,0-4-1.05-5a13.33,13.33,0,0,0-2.66-2A11,11,0,0,0,29.19.09a3.7,3.7,0,0,0-1.64,0,10.1,10.1,0,0,0-1.6.82c-1.64.81-3.56.47-5.35.74a2.55,2.55,0,0,0-1.7.82,10,10,0,0,0-.8,1.92c-.48,1-1.48,1.55-2.14,2.42a3.81,3.81,0,0,0-.75,2.71,17,17,0,0,0,.62,2.21c.15.58.22,1.18.38,1.75a2.53,2.53,0,0,0,.93,1.44c.14.09-.62.32-.47.26.32-.12.87-.91.75-1.26"/><path class="cls-2" d="M26.9,23.06l-.18.06-.43.15-.14.06-.61.27-.08,0-.08,0,0,0-.77.4-.24.13-.83.47-.31.19h0l-.64.39-.49.3-.18.12-.47.3-.52.34-.17.11-.23.15-1,.65-.25.18-1.25.9h0c1,1,2.28,2,3,2.7,2.14,2.12,4.1,3.94,7.23,4.38A6.4,6.4,0,0,0,31,35.29,5.92,5.92,0,0,0,34.5,32a4.76,4.76,0,0,0,.65-3s-.37-1-.36-1.06l-2.59-3.47a9.62,9.62,0,0,0-4.7-1.6A2.16,2.16,0,0,0,27,23Z"/><path class="cls-2" d="M30,137.13c-1,0-1.64,0-1.92-.61-1.28-2.88-1.15-10.57-.21-13.57,1.32-4.24,5.16-16.74,4.85-24.21C32.59,95.3,23.61,89.17,15.68,86a5.7,5.7,0,1,1,4.23-10.58c4,1.58,23.68,10.11,24.21,22.86.5,12.07-9.63,25.67-10.54,27.28C32.53,127.4,32,137.13,30,137.13Z"/><path class="cls-2" d="M62.45,134.15c-3.82-2.18-2.59-2-2.82-5-.54-7-5.7-28.07-9-35.63-2-4.48-11.92-9.38-18.35-11.43A5.7,5.7,0,0,1,35.7,71.23c3.41,1.08,20.63,7,25.35,17.71s3.56,37.15,3.77,39.94c.24,3.14,6.69,8.39,3.55,8.64A40.17,40.17,0,0,1,62.45,134.15Z"/><path class="cls-5" d="M14.67,56.4c.82-1.63,9,4,14.13,2.68A29.85,29.85,0,0,0,38,54.64l3.14,11.67s18.78,16.1,20.66,20.39c1.28,2.92,2.31,8.09,2.84,11.08a2.77,2.77,0,0,1-1.85,3.11c-6.1,2.06-23.13,7.22-30.77,3.51l-.59-8.55-19-10.23S8.59,68.48,14.67,56.4Z"/><g class="cls-6"><g class="cls-6"><path class="cls-1" d="M65.74,72V70.61a1,1,0,0,1-.6.84v1.34A1,1,0,0,0,65.74,72Z"/><g class="cls-7"><g class="cls-6"><path class="cls-1" d="M65.14,71.45v1.34a1,1,0,0,0,.6-.84V70.61a1,1,0,0,1-.6.84"/></g></g></g><g class="cls-6"><path class="cls-1" d="M18.52,77.12v1.34a1,1,0,0,0,.59.83V77.94A1,1,0,0,1,18.52,77.12Z"/><g class="cls-8"><g class="cls-6"><path class="cls-1" d="M18.52,77.12v0"/><path class="cls-1" d="M18.52,77.14v1.34a.69.69,0,0,0,0,.12V77.25a.7.7,0,0,1,0-.12"/><path class="cls-1" d="M18.53,77.25v1.34a.74.74,0,0,0,0,.11V77.37a.74.74,0,0,1,0-.11"/><path class="cls-1" d="M18.57,77.37v1.34l.05.12V77.48l-.05-.12"/><path class="cls-1" d="M18.62,77.48v1.34l.08.12V77.6l-.08-.12"/><path class="cls-1" d="M18.7,77.6v1.34l.13.14V77.74l-.13-.14"/><path class="cls-1" d="M18.83,77.74v1.34a1.57,1.57,0,0,0,.26.19V77.93a1.56,1.56,0,0,1-.26-.19"/><path class="cls-1" d="M19.08,77.93v1.34h0V77.94h0"/></g></g></g><polygon class="cls-1" points="19.11 77.94 19.11 79.28 35.02 88.53 35.01 87.19 19.11 77.94"/><polygon class="cls-1" points="37.88 87.19 37.89 88.53 65.14 72.79 65.14 71.45 37.88 87.19"/><g class="cls-6"><path class="cls-1" d="M35,87.19v1.34a3.16,3.16,0,0,0,2.87,0V87.19A3.16,3.16,0,0,1,35,87.19Z"/><g class="cls-9"><g class="cls-6"><path class="cls-1" d="M35,87.19v1.34a2.31,2.31,0,0,0,.45.2V87.38a2.3,2.3,0,0,1-.45-.2"/><path class="cls-1" d="M35.46,87.38v1.34l.38.1V87.48l-.38-.1"/><path class="cls-1" d="M35.84,87.48v1.34l.26,0V87.51l-.26,0"/><path class="cls-1" d="M36.1,87.51v1.34l.22,0V87.53l-.22,0"/><path class="cls-1" d="M36.33,87.53v1.34h.21V87.53h-.21"/><path class="cls-1" d="M36.53,87.53v1.34h.2V87.52h-.2"/><path class="cls-1" d="M36.73,87.52v1.34l.2,0V87.5l-.2,0"/><path class="cls-1" d="M36.93,87.5v1.34l.2,0V87.46l-.2,0"/><path class="cls-1" d="M37.13,87.46v1.34l.21-.05V87.41l-.21.05"/><path class="cls-1" d="M37.35,87.41v1.34l.25-.08V87.33l-.25.08"/><path class="cls-1" d="M37.59,87.33v1.34l.29-.14V87.19l-.29.14"/></g></g></g></g><path class="cls-10" d="M19.12,76.28a.88.88,0,0,0,0,1.66L35,87.19a3.16,3.16,0,0,0,2.87,0L65.14,71.45a.88.88,0,0,0,0-1.66L49.24,60.54a3.17,3.17,0,0,0-2.87,0Z"/><polygon class="cls-4" points="50.54 70.91 52.25 71.9 53.97 70.91 52.26 69.92 50.54 70.91"/><polygon class="cls-4" points="53.39 72.57 55.09 73.56 56.81 72.57 55.1 71.57 53.39 72.57"/><g class="cls-6"><polygon class="cls-4" points="48.11 72.32 49.81 73.31 51.53 72.32 49.83 71.33 48.11 72.32"/><polygon class="cls-4" points="45.68 73.72 47.38 74.71 49.1 73.72 47.4 72.73 45.68 73.72"/><polygon class="cls-4" points="50.95 73.97 52.66 74.96 54.38 73.97 52.67 72.98 50.95 73.97"/><polygon class="cls-4" points="29.27 73.39 33.61 75.91 43.92 69.96 39.57 67.44 29.27 73.39"/><polygon class="cls-4" points="43.24 75.13 44.95 76.12 46.67 75.13 44.96 74.13 43.24 75.13"/><polygon class="cls-4" points="48.52 75.37 50.23 76.37 51.95 75.37 50.24 74.38 48.52 75.37"/><polygon class="cls-4" points="40.81 76.53 42.52 77.52 44.23 76.53 42.53 75.54 40.81 76.53"/><polygon class="cls-4" points="46.09 76.78 47.8 77.77 49.51 76.78 47.81 75.79 46.09 76.78"/><polygon class="cls-4" points="32.9 77.98 34.46 78.89 49.06 70.46 47.5 69.56 32.9 77.98"/><polygon class="cls-4" points="38.38 77.94 40.08 78.93 41.8 77.94 40.09 76.94 38.38 77.94"/><polygon class="cls-4" points="43.65 78.18 45.36 79.18 47.08 78.18 45.37 77.19 43.65 78.18"/><polygon class="cls-4" points="35.95 79.34 37.65 80.33 39.37 79.34 37.66 78.35 35.95 79.34"/><polygon class="cls-4" points="41.22 79.59 42.93 80.58 44.65 79.59 42.94 78.6 41.22 79.59"/><polygon class="cls-4" points="38.79 80.99 40.5 81.98 42.21 81 40.5 80 38.79 80.99"/></g><polygon class="cls-4" points="33.51 80.74 35.22 81.74 36.94 80.74 35.23 79.75 33.51 80.74"/><polygon class="cls-4" points="36.36 82.4 38.06 83.39 39.78 82.4 38.08 81.41 36.36 82.4"/><g class="cls-6"><polygon class="cls-1" points="37.75 68.38 38.52 68.83 66.68 52.57 65.91 52.12 37.75 68.38"/><polygon class="cls-1" points="37.75 68.38 37.81 88.51 38.58 88.96 38.52 68.83 37.75 68.38"/><polygon class="cls-11" points="38.52 68.83 38.58 88.96 66.74 72.71 66.68 52.57 38.52 68.83"/></g><path class="cls-12" d="M54.12,67.51A4.67,4.67,0,0,0,52,71.18c0,1.34,1,1.88,2.12,1.21a4.65,4.65,0,0,0,2.11-3.65C56.24,67.39,55.3,66.84,54.12,67.51Z"/><path class="cls-2" d="M25,80.83a4,4,0,0,1-.77-.08,62.5,62.5,0,0,1-10.94-3.37C5,73.91.55,69.37.05,63.89c-1-10.45,11.12-29.53,12.5-31.67a4,4,0,0,1,6.73,4.33C14.65,43.76,7.49,57.35,8,63.17c.38,4.15,10.54,8.32,17.74,9.74A4,4,0,0,1,25,80.83Z"/></g></g></svg>