<svg xmlns="http://www.w3.org/2000/svg" viewBox="0 0 48.02 47.81"><defs><style>.cls-1{fill:#76b5ce;}.cls-2{fill:#20a8af;}.cls-3{fill:#9ce3f0;}.cls-4{fill:#ff9100;}.cls-5{fill:#bc6200;}.cls-6{fill:#d87600;}</style></defs><title>Asset 10</title><g id="Layer_2" data-name="Layer 2"><g id="OBJECTS"><path class="cls-1" d="M24,24l17,9.82c-9.33,5.39-24.69,5.39-34,0S-2.33,19.53,7,14.14c5.21-3,12.54-4.47,19.86-4Z"/><path class="cls-2" d="M7,33.78C2.35,31.1,0,27.56,0,24v9.89c0,3.58,2.31,7.16,7,9.87,9.33,5.39,24.69,5.39,34,0v-10C31.69,39.17,16.33,39.17,7,33.78Z"/><path class="cls-3" d="M24,24l17,9.82c-9.33,5.39-24.69,5.39-34,0S-2.33,19.53,7,14.14c5.21-3,12.54-4.47,19.86-4Z"/><path class="cls-4" d="M24,13.79,26.86,0A33.38,33.38,0,0,1,41,4c9.33,5.39,9.33,14.25,0,19.64Z"/><polygon class="cls-5" points="24.01 13.79 24.01 23.96 41.02 33.78 41.02 23.61 24.01 13.79"/><path class="cls-6" d="M48,33.84v-20c0,3.53-2.37,7.05-7,9.72V43.77C45.73,41,48.06,37.44,48,33.84Z"/></g></g></svg>