<svg xmlns="http://www.w3.org/2000/svg" viewBox="0 0 61.39 70.22"><defs><style>.cls-1{fill:#ff4747;}.cls-2{fill:#ff8080;}.cls-3{fill:#fff;}</style></defs><title>Asset 1</title><g id="Layer_2" data-name="Layer 2"><g id="OBJECTS"><path class="cls-1" d="M48.73,52.83c0,15.54-10.91,21.84-24.36,14.07S0,40.23,0,24.7,10.91,2.86,24.36,10.63,48.73,37.29,48.73,52.83Z"/><path class="cls-1" d="M46.3,51.44c0,14-9.82,19.66-21.93,12.66s-21.93-24-21.93-38S12.25,6.45,24.36,13.44,46.3,37.45,46.3,51.44Z"/><path class="cls-2" d="M37,3.33C30.27-.58,24.15-.93,19.74,1.66L7.2,8.9h0c4.4-2.51,10.47-2.13,17.16,1.74,13.46,7.77,24.36,26.66,24.36,42.2,0,7.73-2.7,13.17-7.08,15.73h0l12.54-7.24c4.45-2.53,7.2-8,7.2-15.81C61.39,30,50.49,11.09,37,3.33Z"/><path class="cls-3" d="M18.2,43.53a12,12,0,0,1,3.24.65l.32.11a15.53,15.53,0,0,1,2,.89V39.06l-6.57-3.79A42.23,42.23,0,0,0,18.2,43.53Z"/><path class="cls-3" d="M31.1,33h.4l.27,0A7.48,7.48,0,0,0,34,32.48a31.55,31.55,0,0,0-5.79-7.14,27.36,27.36,0,0,1,1.86,4.23C30.47,30.68,30.81,31.83,31.1,33Z"/><path class="cls-3" d="M22.62,21.62c-1.21,0-2.33.84-3.25,2.42a11.6,11.6,0,0,0-.85,1.86,28.31,28.31,0,0,0,3.11,3l.3.25a21.82,21.82,0,0,0,1.88,1.36V22.2l-.11-.06C23.34,21.95,23,21.78,22.62,21.62Z"/><path class="cls-3" d="M21.62,45.45a11,11,0,0,0-3.11-.57c.25,1,.53,1.93.85,2.85a19.51,19.51,0,0,0,3.25,6.17c.36.26.72.51,1.08.73l.11.07V46.37a15,15,0,0,0-1.88-.81Z"/><path class="cls-3" d="M21.44,30a30,30,0,0,1-3.24-3.12,27.53,27.53,0,0,0-1,7.2l6.57,3.79V31.7a22.35,22.35,0,0,1-2-1.47Z"/><path class="cls-3" d="M17.41,25.94l-.52-.64-.28-.36a37.22,37.22,0,0,1-2.31-3.34c-2.47,1.49-3.88,4.45-4,8.45l6.09,3.52A28.36,28.36,0,0,1,17.41,25.94Z"/><path class="cls-3" d="M17.73,44.89l-.36,0-.27,0a7.27,7.27,0,0,0-2.07.61,31.38,31.38,0,0,0,5.49,6.63A27.36,27.36,0,0,1,18.65,48C18.3,47,18,45.94,17.73,44.89Z"/><path class="cls-3" d="M16.88,43.58l.52,0a43.67,43.67,0,0,1-1-8.76l-6.09-3.51a29.1,29.1,0,0,0,4,13,7.73,7.73,0,0,1,2.32-.67Z"/><path class="cls-3" d="M17.36,24.53l.36.45a12.22,12.22,0,0,1,.92-2,6.08,6.08,0,0,1,1.86-2.08,8.32,8.32,0,0,0-5.47.31,34.84,34.84,0,0,0,2.06,3Z"/><path class="cls-3" d="M31.4,51.29c.18.21.36.44.54.66l.29.35a36.3,36.3,0,0,1,2.5,3.45c2.2-1.49,3.56-4.25,3.7-8.25L32.35,44A28.71,28.71,0,0,1,31.4,51.29Z"/><path class="cls-3" d="M27.13,32.23A11.85,11.85,0,0,0,30.3,33c-.27-1.1-.58-2.16-.94-3.18a19.54,19.54,0,0,0-3.26-6.17c-.36-.26-.73-.51-1.09-.74l-.15-.09v8.36a17,17,0,0,0,1.95.94Z"/><path class="cls-3" d="M31.5,52.75l-.4-.47a12.56,12.56,0,0,1-1,2.27,6.07,6.07,0,0,1-1.87,2.08A8.2,8.2,0,0,0,34,56.2a34.35,34.35,0,0,0-2.25-3.12Z"/><path class="cls-3" d="M32.23,34.32l-.29,0H31.4a44.5,44.5,0,0,1,.95,8.43l6.09,3.52a28.87,28.87,0,0,0-3.71-12.55A8,8,0,0,1,32.23,34.32Z"/><path class="cls-3" d="M30.59,34.3a12.86,12.86,0,0,1-3.32-.82l-.33-.13a19.24,19.24,0,0,1-2.08-1v6.12l6.63,3.83A42.27,42.27,0,0,0,30.59,34.3Z"/><path class="cls-3" d="M27.28,47.4a28.76,28.76,0,0,1,3.31,3,28,28,0,0,0,.89-6.91l-6.63-3.83v6.1a24.16,24.16,0,0,1,2.08,1.38Z"/><path class="cls-3" d="M30.29,51.39a27.23,27.23,0,0,0-3.17-2.9l-.31-.24a21.64,21.64,0,0,0-1.95-1.3V55.3l.15.08c.36.19.73.37,1.09.52,1.21,0,2.34-.83,3.26-2.41A11.9,11.9,0,0,0,30.29,51.39Z"/></g></g></svg>