<svg xmlns="http://www.w3.org/2000/svg" viewBox="0 0 42.7 33.07"><defs><style>.cls-1{fill:#ff9100;}.cls-2{fill:#d87600;}.cls-3{fill:#bc6200;}</style></defs><title>Asset 14</title><g id="Layer_2" data-name="Layer 2"><g id="OBJECTS"><path class="cls-1" d="M41.81,13.71,23.74,24.14a5.76,5.76,0,0,1-5.16-.21l-17.33-10C-.26,13-.43,11.7.89,10.94L19,.51a5.76,5.76,0,0,1,5.16.21l17.32,10C43,11.61,43.13,12.95,41.81,13.71Z"/><path class="cls-2" d="M42.67,20.61v-8h0a1.64,1.64,0,0,1-.86,1.05L23.74,24.14a4.68,4.68,0,0,1-2.4.51v8.42a4.68,4.68,0,0,0,2.4-.51L41.81,22.13A1.45,1.45,0,0,0,42.67,20.61Z"/><path class="cls-3" d="M18.58,23.93l-17.32-10A2.3,2.3,0,0,1,0,12.46v8c-.13.65.29,1.38,1.23,1.93l17.32,10a6,6,0,0,0,2.76.72V24.65A6,6,0,0,1,18.58,23.93Z"/></g></g></svg>