<svg xmlns="http://www.w3.org/2000/svg" viewBox="0 0 85.29 76.99"><defs><style>.cls-1{fill:#ff4747;}.cls-2{fill:#ff8080;}.cls-3{fill:#fff;}</style></defs><title>Asset 9</title><g id="Layer_2" data-name="Layer 2"><g id="OBJECTS"><path class="cls-1" d="M75.25,65.94c0,7.43-3.93,11.54-9.52,11a7.09,7.09,0,0,1-4.3-1.11L15,49.06a12.29,12.29,0,0,1-1.13-.75C6.1,42.9,0,31.76,0,22.5c0-9,5.78-13.13,13.3-10,1.12-6.41,6.48-8.66,12.91-4.95a23.51,23.51,0,0,1,6,5.09c3.42-2.9,8.63-3,14.48.37,8.78,5.07,16.14,16.35,18.1,26.93a12.31,12.31,0,0,1,4.82,8.88C73,54.09,75.25,60.36,75.25,65.94Z"/><path class="cls-2" d="M79.59,43.07a12.31,12.31,0,0,0-4.82-8.88c-2-10.58-9.31-21.86-18.1-26.93C51.53,4.28,46.88,4,43.51,6l-1.42.81a23.41,23.41,0,0,0-5.85-5C32.6-.31,29.3-.5,26.92.9L18.48,5.73a8,8,0,0,0-3.75.93L4.8,12.33c2.28-1.2,5.23-1.21,8.5.14,1.12-6.41,6.48-8.66,12.91-4.95a23.51,23.51,0,0,1,6,5.09c3.42-2.9,8.63-3,14.48.37,8.78,5.07,16.14,16.35,18.1,26.93a12.31,12.31,0,0,1,4.82,8.88c3.48,5.28,5.7,11.55,5.7,17.14,0,5.06-1.83,8.57-4.75,10.13l9.93-5.68c3-1.53,4.85-5.07,4.85-10.19C85.29,54.62,83.07,48.35,79.59,43.07Z"/><path class="cls-3" d="M21.12,42.47c0,1.83-1.28,2.57-2.87,1.66a6.34,6.34,0,0,1-2.87-5c0-1.83,1.28-2.57,2.87-1.66A6.34,6.34,0,0,1,21.12,42.47Z"/><path class="cls-3" d="M30.07,47.63c0,1.83-1.28,2.57-2.87,1.66a6.34,6.34,0,0,1-2.87-5c0-1.83,1.28-2.57,2.87-1.66A6.34,6.34,0,0,1,30.07,47.63Z"/><path class="cls-3" d="M39,52.8c0,1.83-1.28,2.57-2.87,1.66a6.34,6.34,0,0,1-2.87-5c0-1.83,1.28-2.57,2.87-1.66A6.34,6.34,0,0,1,39,52.8Z"/><path class="cls-3" d="M48,58c0,1.83-1.28,2.57-2.87,1.66a6.34,6.34,0,0,1-2.87-5c0-1.83,1.28-2.57,2.87-1.66A6.34,6.34,0,0,1,48,58Z"/><path class="cls-3" d="M56.93,63.14c0,1.83-1.28,2.57-2.87,1.66a6.34,6.34,0,0,1-2.87-5c0-1.83,1.28-2.57,2.87-1.66A6.34,6.34,0,0,1,56.93,63.14Z"/></g></g></svg>