<svg xmlns="http://www.w3.org/2000/svg" viewBox="0 0 32.41 83.32"><defs><style>.cls-1{fill:#f9ab83;}.cls-2{fill:#d13985;}.cls-3{fill:#010400;}.cls-4{fill:#1c1c38;}.cls-5{fill:#46466c;}.cls-6{fill:#2d2d4f;}.cls-7{fill:#ed549c;}.cls-8{fill:#e5a89c;}.cls-9{fill:#fcc4b7;}.cls-10{fill:#52a3f6;}.cls-10,.cls-11,.cls-12{fill-rule:evenodd;}.cls-11{fill:#bbbeb5;}.cls-12{fill:#eaeef1;}</style></defs><title>Asset 5</title><g id="Layer_2" data-name="Layer 2"><g id="OBJECTS"><path class="cls-1" d="M11.17,38.67h0a2.44,2.44,0,0,0,2.83-2l1.78-9.93a2.44,2.44,0,0,0-2-2.83h0a2.44,2.44,0,0,0-2.83,2L9.2,35.85A2.44,2.44,0,0,0,11.17,38.67Z"/><path class="cls-2" d="M9.13,28.63l1.08-6a3.78,3.78,0,0,1,4.37-3h0a3.78,3.78,0,0,1,3,4.37l-1.08,6S13.34,32.93,9.13,28.63Z"/><path class="cls-1" d="M.27,39.54h0a2.44,2.44,0,0,0,3.06,1.59l8.41-2.45A2.44,2.44,0,0,0,14,36.1h0a2.44,2.44,0,0,0-2.59-2.28L1.86,36.49A2.44,2.44,0,0,0,.27,39.54Z"/><path class="cls-3" d="M26.47,78.26c.11,1.06-2.44,1.72-4.58,3-3,1.72-6.17,2.65-7.69,1.77a1,1,0,0,1-.58-.84V80.4c-.05-1,1.41-2.49,3.64-4.66,2.46-2.39,4-3.89,7.69-1.77,1,.61,1.47,1.06,1.48,1.45Z"/><path class="cls-4" d="M17.26,75.74c-3,2.89-4.59,4.6-3.06,5.48s4.57-.45,7.69-2.81C24.63,76.34,28.62,76.09,25,74S19.71,73.34,17.26,75.74Z"/><path class="cls-5" d="M19.63,73.64a1.6,1.6,0,0,1-.17-.74V47.43c0-1.61,1.66-2.93,3.69-2.93h0c2,0,3.69,1.32,3.69,2.93v27.7a.93.93,0,0,1-.66.89C24.77,76.44,21.41,77.06,19.63,73.64Z"/><path class="cls-3" d="M18.48,72.37c.11,1.06-2.44,1.72-4.58,3C10.93,77,7.73,78,6.21,77.09a1,1,0,0,1-.58-.84V74.51C5.57,73.52,7,72,9.27,69.85c2.46-2.39,4-3.89,7.69-1.77,1,.61,1.47,1.06,1.48,1.45Z"/><path class="cls-4" d="M9.27,69.85c-3,2.89-4.59,4.6-3.06,5.48s4.57-.45,7.69-2.81c2.74-2.07,6.73-2.32,3.06-4.44S11.73,67.45,9.27,69.85Z"/><path class="cls-6" d="M11.64,67.75a1.6,1.6,0,0,1-.17-.74V41.54c0-1.61,1.66-2.93,3.69-2.93h0c2,0,3.69,1.32,3.69,2.93v27.7a.93.93,0,0,1-.66.89C16.78,70.55,13.43,71.17,11.64,67.75Z"/><path class="cls-7" d="M25.63,52a.67.67,0,0,1-.31.1c-1.63.13-7.5-1.15-13.37-7.77a3.07,3.07,0,0,1-.8-1.9V23.67a3.09,3.09,0,0,1,1.32-2.86l4.41-2.57a3.08,3.08,0,0,1,3.14.29L26,22a9.8,9.8,0,0,1,4.42,7.65V48.53a1,1,0,0,1-.43.9Z"/><path class="cls-8" d="M23.92,23.16A1.53,1.53,0,0,1,23,24.45a4.86,4.86,0,0,1-4.4,0,1.53,1.53,0,0,1-.91-1.29V19.07a1.53,1.53,0,0,1,.91-1.29,4.86,4.86,0,0,1,4.4,0,1.53,1.53,0,0,1,.91,1.29Z"/><circle class="cls-9" cx="20.81" cy="12.54" r="8.57"/><path class="cls-10" d="M28,2.41c7.32,2.51,3.68,13.21-1.65,17.07-2.6-1.42.56-4-3-2.2-.71-3.44.88-2.4-.08-6.73-3.72,1.94-11-.41-12.1-4C12.44,6,13.8,2.29,16.83.94,20.74-.8,25.74,0,28,2.41Z"/><path class="cls-9" d="M23.67,17.36c0,1,.72,1.44,1.6.93a3.54,3.54,0,0,0,1.6-2.78c0-1-.72-1.44-1.6-.93A3.54,3.54,0,0,0,23.67,17.36Z"/><polygon class="cls-11" points="26.83 39.56 13.42 47.3 0 39.56 0 33.66 13.42 25.91 26.83 33.66 26.83 39.56"/><polygon class="cls-12" points="13.42 25.91 26.83 33.66 13.42 41.25 0 33.66 13.42 25.91"/><path class="cls-1" d="M26.42,44.64h0a2.44,2.44,0,0,0,2.76-2.07l1.43-10a2.44,2.44,0,0,0-2.07-2.76h0a2.44,2.44,0,0,0-2.76,2.07l-1.43,10A2.44,2.44,0,0,0,26.42,44.64Z"/><path class="cls-2" d="M24,34.67l.87-6.08a3.78,3.78,0,0,1,4.27-3.2h0a3.78,3.78,0,0,1,3.2,4.27l-.87,6.08S28.39,38.82,24,34.67Z"/><path class="cls-1" d="M12.92,46.89h0A2.44,2.44,0,0,0,16,48.38l11-3.75A2.44,2.44,0,0,0,29.18,42h0a2.44,2.44,0,0,0-2.67-2.18l-12.1,4A2.44,2.44,0,0,0,12.92,46.89Z"/></g></g></svg>